<?xml version="1.0" standalone="no"?>
<!DOCTYPE svg PUBLIC "-//W3C//DTD SVG 20010904//EN"
 "http://www.w3.org/TR/2001/REC-SVG-20010904/DTD/svg10.dtd">
<svg version="1.0" xmlns="http://www.w3.org/2000/svg"
 width="1000.000000pt" height="982.000000pt" viewBox="0 0 1000.000000 982.000000"
 preserveAspectRatio="xMidYMid meet">
<metadata>
Created by potrace 1.16, written by Peter Selinger 2001-2019
</metadata>
<g transform="translate(0.000000,982.000000) scale(0.100000,-0.100000)"
fill="#000000" stroke="none">
<path d="M5990 7470 c27 -4 -36 -8 -160 -10 -119 -1 -192 -6 -175 -10 19 -5
-21 -9 -110 -10 -98 -2 -126 -5 -95 -10 35 -5 24 -7 -55 -9 -69 -1 -95 -4 -85
-11 10 -7 -11 -10 -70 -11 -57 0 -78 -3 -65 -9 14 -6 3 -9 -40 -9 -43 -1 -56
-4 -45 -11 11 -7 -3 -10 -45 -10 -42 0 -56 -3 -45 -10 11 -7 -4 -10 -50 -11
-46 0 -59 -3 -45 -9 15 -6 8 -9 -28 -9 -29 -1 -46 -5 -42 -11 4 -6 -10 -10
-35 -10 -23 0 -39 -4 -36 -9 3 -5 -26 -12 -64 -15 -39 -4 -70 -11 -70 -17 0
-5 -13 -9 -30 -9 -16 0 -30 -4 -30 -10 0 -5 -13 -10 -28 -10 -15 0 -32 -4 -37
-9 -6 -6 -21 -12 -35 -15 -41 -8 -195 -68 -198 -77 -2 -5 -12 -9 -23 -9 -10 0
-19 -4 -19 -10 0 -5 -11 -10 -24 -10 -14 0 -28 -4 -31 -10 -3 -5 -15 -10 -26
-10 -11 0 -17 -4 -14 -10 4 -6 -5 -10 -19 -10 -14 0 -26 -4 -26 -10 0 -5 -9
-10 -20 -10 -11 0 -20 -5 -20 -11 0 -5 -4 -8 -9 -4 -5 3 -16 -2 -24 -10 -9 -8
-27 -15 -41 -15 -14 0 -26 -4 -26 -10 0 -5 -9 -10 -20 -10 -11 0 -20 -4 -20
-10 0 -5 -9 -10 -20 -10 -11 0 -20 -4 -20 -10 0 -5 -9 -10 -20 -10 -11 0 -20
-4 -20 -10 0 -5 -9 -10 -21 -10 -11 0 -17 -4 -14 -10 4 -6 -6 -10 -22 -10 -22
0 -25 -2 -13 -10 12 -8 9 -10 -13 -10 -16 0 -26 -4 -22 -10 4 -6 -5 -10 -20
-10 -14 0 -24 -4 -21 -9 4 -5 -12 -12 -34 -16 -22 -4 -38 -11 -34 -16 3 -5 -4
-9 -16 -9 -12 0 -18 -4 -15 -10 3 -5 -1 -10 -11 -10 -9 0 -25 -10 -35 -22 -11
-11 -19 -16 -19 -9 0 7 -11 2 -25 -11 -39 -37 -55 -49 -55 -43 0 4 -17 -11
-39 -32 -21 -21 -48 -45 -61 -53 -13 -8 -33 -25 -46 -37 -13 -13 -26 -23 -30
-23 -3 0 -19 -13 -34 -30 -15 -16 -31 -30 -35 -30 -12 0 -34 -27 -28 -34 4 -3
-4 -6 -16 -6 -12 0 -19 -4 -16 -10 3 -5 1 -10 -5 -10 -22 0 -150 -124 -150
-146 0 -8 -4 -12 -10 -9 -5 3 -10 -3 -10 -15 0 -12 -4 -18 -10 -15 -5 3 -10 0
-10 -7 0 -8 -9 -20 -20 -28 -11 -8 -20 -20 -20 -28 0 -7 -4 -10 -10 -7 -5 3
-10 -1 -10 -9 0 -9 -4 -16 -10 -16 -5 0 -10 -7 -10 -15 0 -8 -4 -15 -10 -15
-5 0 -10 -7 -10 -15 0 -8 -4 -15 -10 -15 -5 0 -10 -7 -10 -15 0 -8 -4 -15 -10
-15 -5 0 -10 -5 -10 -11 0 -6 -15 -26 -34 -44 -19 -18 -32 -36 -29 -39 4 -3
-1 -6 -11 -6 -9 0 -14 -4 -11 -10 3 -5 1 -10 -5 -10 -6 0 -8 -4 -5 -10 3 -5 1
-10 -5 -10 -6 0 -8 -4 -5 -10 3 -5 -1 -10 -10 -10 -9 0 -13 -4 -10 -10 3 -5
-2 -10 -12 -11 -11 0 -13 -3 -5 -6 8 -3 2 -15 -19 -34 -17 -16 -25 -29 -19
-29 7 0 3 -8 -8 -19 -12 -10 -22 -26 -22 -35 0 -9 -4 -16 -10 -16 -5 0 -10 -9
-10 -21 0 -11 -4 -18 -9 -14 -6 3 -13 -15 -16 -40 -4 -25 -11 -42 -16 -39 -5
3 -9 -10 -9 -28 0 -25 -3 -29 -10 -18 -8 12 -10 9 -10 -13 0 -16 -4 -26 -10
-22 -6 4 -10 -7 -10 -27 0 -25 -3 -29 -10 -18 -7 11 -10 5 -10 -25 0 -30 -3
-36 -10 -25 -7 11 -10 3 -10 -30 0 -33 -3 -41 -10 -30 -7 11 -10 4 -10 -27 0
-24 -4 -43 -10 -43 -5 0 -10 -17 -10 -37 0 -28 -3 -34 -10 -23 -7 11 -10 -2
-10 -43 0 -36 -4 -56 -10 -52 -6 4 -10 -12 -10 -40 0 -28 -4 -44 -10 -40 -6 4
-10 -18 -10 -59 0 -46 -4 -66 -12 -66 -9 0 -8 -4 2 -10 9 -6 10 -10 3 -10 -16
0 -22 -85 -32 -395 -4 -143 -11 -271 -15 -285 -43 -146 -61 -200 -67 -200 -4
0 -6 -9 -4 -20 2 -13 -2 -20 -11 -20 -8 0 -13 -4 -9 -9 3 -5 0 -15 -7 -23 -7
-7 -14 -20 -16 -28 -2 -8 -8 -17 -13 -18 -5 -2 -7 -8 -3 -13 3 -5 -3 -9 -13
-9 -15 0 -16 -2 -3 -10 9 -6 10 -10 3 -10 -6 0 -15 -10 -19 -22 -4 -12 -24
-39 -45 -59 -22 -21 -39 -43 -39 -49 0 -6 -4 -8 -10 -5 -5 3 -10 -3 -10 -15 0
-12 -5 -18 -10 -15 -5 3 -10 -1 -10 -10 0 -9 -5 -13 -10 -10 -5 3 -10 1 -10
-5 0 -15 -26 -41 -34 -33 -3 4 -6 -2 -6 -12 0 -10 -3 -16 -6 -12 -4 3 -28 -16
-55 -44 -26 -27 -53 -49 -59 -49 -6 0 -8 -4 -5 -10 3 -5 -2 -10 -12 -10 -10 0
-25 -9 -33 -20 -8 -11 -19 -20 -25 -20 -6 0 -17 -9 -25 -20 -8 -11 -20 -20
-27 -20 -7 0 -13 -4 -13 -9 0 -5 -19 -12 -41 -16 -29 -5 -38 -10 -28 -16 10
-6 8 -9 -8 -9 -13 0 -23 -4 -23 -10 0 -5 -9 -10 -20 -10 -11 0 -20 -4 -20 -10
0 -5 -8 -10 -18 -10 -10 0 -24 -9 -32 -20 -10 -14 -16 -16 -22 -7 -6 9 -8 9
-8 0 0 -7 -9 -13 -20 -13 -11 0 -20 -4 -20 -10 0 -5 -9 -10 -20 -10 -11 0 -20
-4 -20 -10 0 -5 -9 -10 -20 -10 -11 0 -20 -4 -20 -10 0 -5 -8 -10 -17 -10 -10
0 -31 -8 -48 -18 -16 -10 -50 -26 -75 -35 -25 -9 -83 -30 -130 -46 -47 -17
-93 -31 -103 -31 -9 0 -25 -4 -35 -9 -9 -5 -37 -14 -62 -21 -25 -7 -53 -16
-62 -21 -10 -5 -33 -9 -52 -9 l-34 0 -5 133 c-5 153 -13 231 -27 257 -6 10
-10 32 -10 49 0 17 -4 31 -10 31 -5 0 -10 18 -10 40 0 22 -4 40 -10 40 -5 0
-10 23 -10 50 0 28 5 50 10 50 6 0 10 7 10 15 0 9 11 27 25 41 14 14 23 30 20
35 -4 5 -2 9 3 9 11 0 33 70 26 82 -3 4 7 8 21 8 15 0 24 4 20 10 -3 6 2 10
12 11 16 0 16 1 -2 9 -19 8 -19 9 2 9 16 1 21 6 18 21 -2 11 1 20 6 20 17 0
35 23 43 53 3 15 11 27 16 27 6 0 10 9 10 20 0 11 5 20 10 20 6 0 10 9 10 21
0 11 5 17 10 14 6 -4 10 8 10 30 0 22 4 34 10 30 6 -4 10 15 10 49 0 31 5 56
10 56 6 0 10 5 10 11 0 5 -4 7 -10 4 -6 -4 -10 8 -10 29 0 36 0 36 -42 36 -32
0 -39 -3 -28 -10 13 -9 13 -10 0 -10 -9 0 -22 -9 -30 -20 -8 -11 -21 -20 -29
-20 -8 0 -12 -3 -8 -6 3 -3 -4 -16 -16 -29 -36 -36 -67 -78 -80 -107 -6 -16
-15 -28 -19 -28 -5 0 -8 -7 -8 -15 0 -8 -4 -15 -10 -15 -5 0 -10 -9 -10 -21 0
-11 -4 -17 -10 -14 -5 3 -10 -1 -10 -9 0 -9 -4 -16 -10 -16 -5 0 -10 -10 -10
-22 0 -19 -2 -20 -10 -8 -6 10 -10 11 -10 3 0 -7 -9 -13 -19 -13 -11 0 -22 6
-25 13 -5 10 -7 10 -12 0 -3 -8 -24 -13 -47 -13 -31 0 -38 -3 -27 -10 12 -8
11 -10 -7 -10 -15 0 -23 -6 -23 -17 0 -10 -3 -28 -6 -40 -4 -13 -1 -23 8 -26
7 -2 3 -2 -10 0 -12 2 -22 -1 -22 -7 0 -5 -10 -10 -22 -10 -19 0 -20 -2 -8
-10 10 -6 11 -10 3 -10 -7 0 -13 -9 -13 -20 0 -11 5 -20 10 -20 6 0 10 -11 10
-25 0 -18 5 -25 20 -25 13 0 20 -7 20 -19 0 -11 7 -26 15 -35 9 -8 15 -34 16
-63 1 -39 3 -43 9 -23 5 15 8 -33 8 -120 0 -89 -3 -137 -8 -125 -6 13 -9 -14
-10 -80 -1 -66 -4 -93 -10 -80 -5 12 -9 -33 -9 -121 l-1 -142 -75 -7 c-41 -4
-73 -11 -69 -16 3 -5 -16 -9 -41 -9 -28 0 -44 -4 -40 -10 4 -6 -7 -10 -25 -10
-18 0 -29 -4 -25 -10 3 -6 -3 -10 -15 -10 -11 0 -36 -16 -55 -35 -33 -32 -35
-38 -35 -102 0 -48 3 -64 10 -53 7 11 10 5 10 -23 0 -23 4 -36 10 -32 6 4 10
-7 10 -24 0 -17 5 -31 10 -31 6 0 10 -11 10 -25 0 -14 5 -25 10 -25 6 0 10 -5
10 -11 0 -7 10 -20 22 -30 11 -11 16 -19 9 -19 -8 0 -7 -5 3 -16 9 -8 14 -19
12 -23 -3 -4 4 -14 15 -21 12 -9 19 -26 19 -47 0 -17 5 -35 10 -38 6 -4 8 -11
5 -16 -4 -5 -1 -9 6 -9 7 0 10 -3 6 -6 -7 -7 27 -77 60 -121 12 -17 23 -35 23
-38 0 -4 18 -24 40 -45 22 -21 40 -48 40 -60 0 -12 4 -18 10 -15 6 4 13 -8 17
-27 7 -32 7 -32 14 -8 6 20 7 16 8 -20 1 -26 5 -40 9 -33 6 9 12 7 22 -7 8
-11 21 -20 29 -20 8 0 12 -3 8 -6 -3 -4 0 -13 8 -20 10 -10 40 -14 107 -13 64
1 84 4 63 9 -29 7 -29 8 10 10 32 1 36 3 20 10 -16 7 -12 9 20 10 32 1 36 3
20 10 -18 8 -17 9 8 9 16 1 26 5 22 11 -3 5 2 10 12 10 15 0 16 2 3 10 -12 8
-9 10 13 10 16 0 26 4 23 9 -8 12 28 51 48 51 9 0 16 5 16 10 0 6 10 10 23 10
16 0 18 3 8 9 -11 7 -8 11 10 17 13 4 27 7 32 6 4 -1 7 8 8 20 0 22 1 22 9 3
7 -17 9 -17 9 -2 1 9 4 16 9 16 16 -3 31 2 44 14 20 18 105 77 113 77 3 0 15
9 27 20 12 11 31 20 42 21 21 0 21 1 1 9 -17 7 -14 9 15 10 29 1 32 3 15 10
-17 7 -14 9 13 9 33 1 67 23 55 35 -4 3 7 6 23 6 22 0 26 3 14 10 -11 7 -3 10
30 11 38 1 41 2 20 9 -23 7 -22 8 10 9 26 1 31 4 20 11 -11 7 -6 10 20 10 26
0 31 3 20 10 -11 7 -6 10 20 11 32 1 33 2 10 9 -20 6 -13 8 30 10 43 2 50 4
30 10 l-25 8 25 2 c14 1 28 2 32 1 5 0 8 3 8 9 0 5 9 10 21 10 11 0 17 5 14
10 -4 6 8 10 27 11 27 0 30 2 13 9 -15 7 -10 9 23 9 24 1 41 5 38 10 -7 11 27
21 72 21 18 0 41 5 52 10 11 6 29 15 40 20 12 6 25 8 30 5 4 -3 16 2 24 11 12
11 16 12 16 2 0 -8 3 -9 8 -3 4 6 34 16 67 23 33 7 69 15 80 18 167 40 265 49
500 48 167 -1 220 -6 338 -29 15 -3 39 -7 55 -10 84 -14 188 -39 196 -46 6 -5
25 -9 43 -9 18 0 33 -4 33 -10 0 -5 17 -10 38 -10 24 0 32 -3 23 -9 -9 -6 2
-11 33 -15 25 -4 46 -13 46 -19 0 -7 4 -6 10 3 6 10 10 11 10 3 0 -7 9 -13 20
-13 11 0 20 -4 20 -10 0 -5 9 -10 20 -10 11 0 20 -4 20 -10 0 -5 10 -10 23
-10 18 0 19 -2 7 -10 -11 -7 -6 -10 20 -10 26 0 31 -3 20 -10 -11 -7 0 -10 40
-11 l55 -2 -45 -7 -45 -7 45 -2 c33 -1 41 -4 30 -11 -12 -8 -9 -10 13 -10 16
0 26 -4 22 -10 -4 -6 8 -10 27 -11 31 -1 32 -1 8 -9 -24 -8 -23 -8 8 -9 19 -1
31 -5 27 -11 -4 -6 6 -10 22 -10 22 0 25 -2 13 -10 -12 -8 -11 -10 8 -10 12 0
22 -4 22 -10 0 -5 9 -10 20 -10 11 0 20 -4 20 -10 0 -5 9 -10 20 -10 11 0 20
-4 20 -10 0 -5 9 -10 20 -10 11 0 20 -6 20 -12 0 -9 4 -8 10 2 8 13 10 12 10
-2 0 -16 11 -23 33 -19 4 0 7 -4 7 -10 0 -5 4 -8 9 -5 4 3 18 -3 31 -14 12
-10 34 -22 50 -25 16 -3 34 -13 40 -20 7 -8 38 -20 71 -26 32 -6 59 -16 59
-20 0 -5 9 -9 20 -9 11 0 20 -4 20 -10 0 -5 9 -10 20 -10 11 0 20 -4 20 -10 0
-5 14 -10 30 -10 17 0 30 -4 30 -10 0 -5 9 -10 20 -10 11 0 20 -6 20 -12 0 -9
4 -8 10 2 6 10 10 11 10 3 0 -8 14 -13 33 -14 30 -1 31 -1 7 -9 -19 -6 -10 -8
35 -9 43 -1 56 -4 45 -11 -11 -7 -6 -10 20 -10 26 0 31 -3 20 -10 -11 -7 4
-10 50 -11 48 -1 58 -3 40 -9 -19 -6 -7 -9 45 -11 l70 -2 -55 -7 c-55 -7 -54
-7 23 -8 49 -1 76 -6 72 -12 -4 -6 16 -10 52 -11 42 0 52 -3 38 -9 -14 -6 5
-9 60 -10 59 -2 72 -4 50 -10 -22 -5 -5 -8 60 -10 68 -2 82 -4 55 -10 -23 -5
9 -8 95 -10 82 -1 121 -5 105 -10 -16 -5 13 -8 83 -9 64 -1 107 -5 107 -11 0
-7 133 -10 383 -9 210 1 366 5 347 9 -22 5 18 8 110 9 91 2 138 6 125 11 -13
6 21 9 95 10 74 1 106 5 90 10 -17 5 8 9 75 10 69 2 91 5 70 10 -23 6 -15 8
38 9 37 0 67 5 67 11 0 6 26 10 58 11 41 0 51 3 37 9 -14 6 3 9 55 10 54 2 68
4 50 10 -19 6 -11 9 35 10 50 2 55 4 30 10 -24 6 -16 8 35 9 46 1 61 4 50 11
-11 7 -7 10 18 10 19 0 32 5 32 13 0 8 4 7 10 -3 6 -10 10 -11 10 -2 0 6 9 12
20 12 11 0 20 5 20 10 0 6 18 10 41 10 24 0 38 4 34 10 -4 6 9 10 32 10 28 0
34 3 23 10 -12 8 -9 10 12 10 15 0 30 5 33 10 3 6 17 10 31 10 14 0 22 4 19
10 -4 6 7 10 24 10 17 0 31 4 31 9 0 6 27 15 60 22 33 6 60 16 60 20 0 5 9 9
20 9 11 0 20 6 20 13 0 8 4 7 10 -3 5 -8 10 -10 10 -4 0 6 12 17 28 25 15 8
30 18 34 24 5 6 8 5 8 -3 0 -10 4 -9 16 2 8 9 20 14 25 10 5 -3 12 2 15 10 3
9 10 13 15 10 5 -3 9 0 9 5 0 6 9 11 20 11 11 0 20 5 20 10 0 6 12 10 28 11
24 0 25 1 7 9 -16 7 -12 9 18 9 23 1 36 5 32 11 -3 6 3 10 15 10 12 0 18 5 15
10 -4 6 6 10 22 10 22 0 25 2 13 10 -11 7 -5 10 25 11 l40 2 -35 7 -35 7 45 2
c33 1 41 4 30 11 -12 8 -11 10 8 10 12 0 22 5 22 10 0 6 15 10 33 11 30 1 31
1 7 9 -21 7 -18 8 20 10 38 2 41 3 20 10 l-25 8 27 1 c17 1 27 6 25 14 -1 7 7
11 23 9 17 -2 21 0 12 6 -10 7 -5 13 19 25 18 8 36 14 40 11 4 -2 9 3 13 11 3
8 15 15 26 15 11 0 20 5 20 10 0 6 5 10 10 10 6 0 23 11 38 25 15 14 31 25 37
25 10 0 68 46 122 98 13 12 30 22 38 22 8 0 15 9 15 20 0 12 7 20 18 20 11 0
13 3 6 8 -9 5 -8 11 2 20 9 8 14 9 14 2 0 -6 11 0 24 12 13 13 23 27 22 33 0
5 9 14 22 20 12 5 22 19 23 30 0 11 3 14 6 8 2 -7 12 -13 21 -12 11 0 12 2 5
6 -7 2 -13 12 -13 21 0 15 2 15 10 2 8 -13 10 -12 10 4 0 11 3 17 6 13 3 -3
12 0 20 6 53 44 74 67 74 78 0 7 3 9 7 6 3 -4 14 7 24 23 11 17 23 30 29 30 5
0 10 6 10 13 0 7 9 19 20 27 12 9 20 26 20 43 0 15 4 26 9 23 13 -8 51 29 56
54 2 12 13 30 25 40 11 9 20 26 20 36 0 16 2 17 10 4 7 -11 10 -6 10 20 0 26
3 31 10 20 8 -12 10 -10 10 10 0 20 2 22 10 10 7 -11 10 -7 10 18 0 20 4 31
10 27 6 -3 10 4 11 17 1 23 1 23 9 -2 7 -20 8 -16 10 25 2 44 3 47 10 20 7
-29 8 -29 10 10 1 32 3 36 10 20 7 -17 9 -16 9 10 1 23 4 27 11 15 8 -12 10
-9 10 13 0 16 4 26 10 22 6 -4 10 5 10 20 0 15 4 24 10 20 6 -4 10 6 10 22 0
22 2 25 10 13 8 -12 10 -11 10 8 0 12 5 22 10 22 6 0 10 11 10 25 0 14 4 25 9
25 8 0 32 49 34 67 0 4 6 13 13 18 11 8 33 60 48 110 2 6 8 23 14 38 7 16 12
35 12 42 0 8 11 48 25 89 14 41 25 84 25 95 0 11 5 23 10 26 6 3 10 28 10 56
0 27 5 49 10 49 6 0 10 28 10 64 0 36 5 68 10 71 6 4 10 85 10 211 0 134 -3
203 -10 199 -6 -4 -10 14 -10 46 0 28 -4 68 -9 88 -5 20 -15 63 -22 96 -10 53
-31 133 -47 175 -3 8 -7 23 -9 33 -8 43 -12 63 -12 75 -1 7 -5 11 -10 7 -6 -3
-8 4 -6 15 2 11 -2 25 -8 32 -7 7 -14 22 -15 33 -2 11 -8 22 -13 23 -5 2 -9
13 -9 23 0 11 -4 17 -10 14 -6 -4 -10 5 -10 19 0 14 -4 26 -10 26 -5 0 -10 11
-10 25 0 14 -4 25 -10 25 -5 0 -10 9 -10 20 0 11 -4 20 -10 20 -5 0 -10 9 -10
20 0 11 -4 20 -10 20 -5 0 -10 9 -10 21 0 11 -4 17 -10 14 -6 -3 -10 4 -10 17
0 13 -9 30 -20 38 -11 8 -20 21 -20 29 0 7 -10 22 -22 32 -12 11 -16 19 -8 19
8 0 4 8 -8 19 -12 10 -22 24 -22 30 0 7 -4 9 -10 6 -5 -3 -10 0 -10 7 0 8 -9
20 -20 28 -11 8 -20 24 -20 35 0 16 -2 17 -10 5 -8 -12 -10 -10 -10 10 0 20
-2 22 -10 10 -8 -12 -10 -11 -10 6 0 12 -7 24 -15 28 -8 3 -15 15 -15 26 0 12
-4 18 -10 15 -5 -3 -10 -2 -10 3 0 12 -110 122 -122 122 -5 0 -6 5 -3 10 3 6
-1 10 -10 10 -9 0 -13 5 -10 10 3 6 -1 10 -10 10 -9 0 -13 5 -10 10 3 6 1 10
-5 10 -6 0 -28 17 -48 38 -21 21 -50 42 -65 46 -15 3 -27 11 -27 16 0 6 -8 10
-17 10 -9 0 -14 3 -10 6 7 7 -38 54 -51 54 -6 0 -20 13 -33 30 -13 16 -30 30
-37 30 -7 0 -10 5 -7 10 3 6 -1 10 -9 10 -9 0 -28 13 -43 28 -16 16 -46 41
-68 58 -22 16 -47 37 -56 46 -9 10 -24 18 -33 18 -10 0 -14 5 -11 10 3 6 1 10
-6 10 -6 0 -19 8 -28 18 -9 9 -23 18 -31 20 -8 2 -16 8 -18 13 -2 5 -10 9 -18
9 -9 0 -12 5 -9 10 4 6 3 10 -2 9 -4 -1 -24 2 -43 6 -29 7 -31 9 -15 16 19 7
18 8 -2 8 -13 1 -23 6 -23 11 0 6 -10 10 -22 10 -19 0 -20 2 -8 10 11 7 6 10
-20 10 -26 0 -31 3 -20 10 12 8 11 10 -7 10 -13 0 -23 5 -23 10 0 6 -15 10
-32 10 -25 0 -29 3 -18 10 11 7 6 10 -20 10 -26 0 -31 3 -20 10 12 8 9 10 -13
10 -16 0 -26 4 -22 10 4 6 -7 10 -25 10 -18 0 -29 4 -25 10 3 6 -3 10 -14 10
-12 0 -21 5 -21 10 0 6 -9 10 -20 10 -11 0 -20 5 -20 10 0 6 -9 10 -21 10 -11
0 -27 7 -36 15 -8 8 -19 13 -24 10 -5 -4 -9 -1 -9 4 0 6 -9 11 -20 11 -11 0
-20 6 -20 13 0 8 -4 7 -10 -3 -6 -10 -10 -11 -10 -2 0 6 -9 12 -20 12 -11 0
-20 5 -20 10 0 6 -8 10 -18 10 -10 0 -22 4 -28 9 -11 10 -183 73 -207 76 -10
1 -23 8 -28 16 -7 12 -9 12 -9 -1 0 -9 -3 -11 -8 -5 -4 6 -16 12 -27 13 -11 2
-22 7 -25 12 -3 4 -18 9 -33 12 -23 4 -27 2 -23 -11 5 -13 4 -13 -8 2 -8 11
-28 17 -52 18 -31 0 -35 2 -19 9 15 6 6 9 -33 9 -33 1 -51 5 -47 11 4 6 -12
10 -40 10 -28 0 -44 4 -40 10 4 6 -11 10 -37 10 -31 0 -39 3 -28 10 10 7 -8
10 -60 11 -53 1 -68 3 -50 9 17 6 -1 9 -60 10 -59 1 -77 4 -60 10 18 6 1 9
-55 10 -55 1 -74 4 -60 10 13 6 -16 9 -85 11 -78 1 -95 4 -65 9 27 5 -8 8
-105 10 -94 2 -133 5 -110 10 20 4 -69 9 -205 11 -172 2 -216 5 -155 9 75 6
68 6 -55 7 -88 0 -123 -3 -95 -7z m-142 -568 c77 1 81 2 37 8 -35 5 -11 7 85
8 90 1 130 -2 120 -8 -10 -7 18 -10 90 -11 70 -1 95 -4 75 -9 -22 -5 -5 -8 60
-10 65 -2 82 -5 60 -10 -23 -6 -12 -8 45 -10 50 -1 67 -4 50 -9 -25 -7 82 -19
190 -22 37 -1 41 -2 20 -9 -19 -6 -8 -8 40 -10 46 -1 59 -4 45 -10 -14 -6 1
-9 48 -9 43 -1 66 -5 62 -11 -4 -6 17 -10 55 -10 38 0 59 -4 55 -10 -3 -5 1
-10 10 -10 9 0 13 5 10 10 -3 6 3 10 14 10 12 0 21 -4 21 -10 0 -5 9 -10 20
-10 11 0 20 -4 20 -10 0 -6 27 -10 60 -10 33 0 60 -4 60 -10 0 -5 7 -10 15
-10 8 0 15 -3 15 -7 0 -12 51 -33 77 -33 13 0 23 -4 23 -10 0 -5 16 -10 35
-10 35 0 36 0 33 -40 -1 -22 -6 -40 -10 -40 -4 0 -8 -7 -8 -15 0 -8 -6 -14
-12 -12 -8 1 -12 -6 -10 -19 2 -13 -4 -24 -14 -28 -9 -3 -14 -12 -10 -21 3 -8
2 -15 -3 -15 -5 0 -11 11 -13 24 -4 19 0 26 14 29 13 3 11 4 -4 3 -20 -1 -23
-6 -22 -38 0 -36 -1 -38 -30 -37 -24 1 -26 3 -8 6 14 3 22 12 22 24 0 10 -2
19 -3 19 -13 0 -47 -41 -50 -59 -2 -13 -10 -27 -18 -32 -11 -7 -11 -9 4 -9 23
0 14 -16 -12 -23 -15 -4 -18 -1 -14 12 5 12 1 11 -14 -4 -14 -14 -16 -21 -7
-23 15 -4 27 -32 18 -41 -4 -3 -9 0 -11 7 -6 17 -23 15 -23 -3 0 -8 -6 -15
-12 -15 -9 0 -9 -3 1 -9 11 -7 9 -14 -12 -35 -27 -27 -57 -35 -57 -15 0 6 6 9
13 6 14 -5 17 28 4 38 -4 3 -5 2 -2 -1 2 -4 -3 -13 -11 -21 -8 -9 -12 -23 -9
-34 4 -11 2 -19 -4 -19 -6 0 -11 16 -11 35 0 19 -4 35 -10 35 -5 0 -10 5 -10
11 0 15 -26 39 -34 32 -3 -4 -6 1 -6 10 0 9 -4 17 -10 17 -15 0 -12 -16 4 -30
8 -6 12 -19 9 -28 -4 -15 -3 -15 6 -2 9 13 11 13 11 -2 0 -10 -7 -18 -16 -18
-17 0 -44 -23 -44 -39 0 -5 5 -13 12 -17 7 -4 8 -3 4 4 -4 7 -1 12 8 12 11 0
16 -10 16 -31 0 -17 -4 -28 -10 -24 -5 3 -10 2 -10 -3 0 -6 -8 -9 -17 -8 -12
0 -19 -7 -21 -22 -2 -12 -8 -20 -13 -17 -5 4 -9 1 -9 -4 0 -6 -3 -10 -7 -10
-22 4 -32 -3 -35 -23 -2 -12 -8 -23 -14 -25 -8 -3 -10 10 -7 42 4 30 2 45 -6
45 -6 0 -11 -18 -11 -45 0 -32 -5 -47 -16 -52 -8 -3 -14 -15 -13 -27 3 -48 -1
-57 -23 -54 -13 2 -22 9 -21 16 4 16 -10 15 -26 0 -10 -11 -3 -15 31 -25 l43
-11 -40 -1 c-30 -1 -36 -4 -25 -11 12 -8 10 -10 -10 -10 -23 -1 -23 -2 10 -20
30 -16 32 -19 13 -20 -13 0 -23 5 -23 10 0 6 -4 10 -10 10 -19 0 -10 -21 13
-30 l22 -9 -23 0 c-13 -1 -20 -5 -17 -11 3 -5 -1 -10 -9 -10 -9 0 -16 -4 -16
-10 0 -13 -37 -13 -45 -1 -3 5 -1 12 5 16 5 3 10 1 10 -4 0 -6 5 -11 11 -11
18 0 -1 21 -29 31 -21 8 -23 12 -12 19 8 5 19 6 25 4 5 -3 2 1 -7 9 -18 14
-25 33 -9 23 13 -8 21 33 11 57 l-9 22 -7 -22 c-3 -13 -11 -23 -16 -23 -5 0
-7 4 -3 9 10 16 -50 40 -71 28 -17 -9 -18 -9 -5 6 12 15 11 17 -8 17 -13 0
-21 -6 -21 -16 0 -13 -7 -15 -32 -11 -18 3 -27 3 -20 0 6 -2 12 -18 12 -34 0
-26 4 -29 33 -30 l32 -1 -30 -8 -30 -8 28 -1 c15 0 27 -7 27 -13 0 -10 2 -10
8 -1 6 9 12 7 22 -7 8 -11 25 -20 37 -20 17 0 21 -4 16 -17 -5 -12 -3 -14 7
-8 10 6 12 4 7 -9 -4 -10 -3 -15 3 -11 5 3 18 1 27 -4 15 -9 13 -10 -14 -11
-27 0 -32 -4 -35 -27 -2 -14 -10 -28 -18 -30 -13 -4 -13 -3 0 6 13 9 13 11 -2
11 -21 0 -24 -25 -5 -34 6 -4 2 -4 -10 -2 -24 4 -32 -9 -10 -17 7 -3 4 -6 -6
-6 -12 -1 -16 -6 -11 -13 6 -10 4 -10 -7 0 -17 16 -26 15 -32 -2 -4 -10 -1
-13 9 -9 21 8 17 -5 -11 -33 -14 -14 -25 -20 -25 -14 0 17 5 25 12 23 4 -2 5
4 2 12 -8 19 -12 19 -31 0 -12 -12 -12 -19 -3 -30 7 -8 10 -20 7 -27 -4 -9 -6
-8 -6 3 -1 9 -8 22 -16 29 -13 10 -15 9 -15 -9 0 -14 -4 -20 -11 -15 -11 6
-59 -40 -59 -58 0 -4 -7 -8 -16 -8 -10 0 -14 -6 -10 -15 3 -8 1 -15 -4 -15 -6
0 -10 5 -10 10 0 6 -5 10 -11 10 -5 0 -7 -4 -4 -10 3 -5 -1 -10 -9 -10 -9 0
-16 -4 -16 -10 0 -5 4 -10 9 -10 5 0 14 -13 20 -30 8 -24 7 -30 -4 -30 -8 0
-14 8 -12 18 1 9 -2 17 -8 17 -5 0 -9 -3 -8 -7 2 -5 -4 -8 -12 -8 -8 0 -15 -4
-15 -10 0 -5 9 -10 19 -10 11 0 23 -4 26 -10 3 -5 -1 -10 -10 -10 -9 0 -13 -4
-10 -10 3 -5 -1 -10 -10 -10 -9 0 -13 -4 -10 -10 4 -6 -8 -10 -27 -11 -27 0
-30 -2 -13 -9 17 -7 14 -9 -13 -9 -20 -1 -31 3 -27 9 3 6 -1 10 -10 10 -9 0
-13 5 -10 10 3 6 -1 10 -10 10 -9 0 -13 5 -10 10 3 6 -2 10 -12 10 -15 0 -16
2 -3 10 20 13 43 13 35 0 -4 -7 2 -9 18 -5 16 4 30 1 41 -10 9 -9 16 -12 16
-6 0 6 8 11 17 11 15 0 14 2 -3 19 -10 10 -20 14 -22 10 -2 -5 -15 -9 -29 -9
-18 0 -24 4 -20 14 4 10 1 13 -9 9 -17 -6 -19 8 -2 25 6 6 9 14 6 17 -2 3 -13
-11 -24 -30 -10 -19 -25 -35 -32 -35 -12 0 -12 3 -2 15 11 13 10 14 -4 9 -19
-7 -22 11 -3 20 6 3 2 3 -10 0 -17 -4 -23 -1 -23 10 0 20 10 20 37 1 25 -17
38 -6 28 24 -3 11 -1 22 5 26 5 3 10 -2 10 -12 0 -15 2 -16 10 -3 6 10 10 11
10 3 0 -7 10 -13 22 -13 12 0 18 3 15 7 -4 3 1 15 10 26 21 22 21 23 -7 45
-11 9 -22 29 -24 45 -1 15 -6 30 -9 34 -4 3 -7 18 -7 31 0 14 -3 22 -7 19 -3
-4 -11 1 -18 10 -15 20 -35 9 -35 -18 0 -12 -5 -19 -12 -16 -14 5 -12 40 3 45
5 2 9 10 9 18 0 9 11 14 33 14 17 0 27 4 22 8 -15 10 -16 52 -2 52 8 0 12 15
11 40 0 27 3 40 13 40 7 0 12 3 12 8 -5 30 4 55 21 59 11 3 17 9 15 13 -3 5 6
20 21 35 22 22 28 24 41 13 14 -11 15 -10 8 11 -5 18 -4 22 6 15 11 -6 11 -4
0 10 -9 10 -11 20 -5 24 14 11 34 50 34 67 0 9 5 13 10 10 6 -4 10 13 10 44
l0 51 40 0 c24 0 40 -5 40 -12 0 -6 8 -1 19 10 10 12 26 22 35 22 10 0 16 8
16 23 0 18 2 19 10 7 8 -13 10 -12 10 3 0 28 45 67 77 67 22 0 25 -2 13 -10
-12 -8 -11 -10 8 -10 18 0 22 -6 22 -30 0 -21 5 -30 16 -30 8 0 12 -4 9 -10
-4 -6 9 -10 32 -11 30 0 34 -2 18 -9 -17 -7 -15 -9 11 -9 28 -1 30 1 26 29 -2
17 -9 30 -14 30 -5 0 -7 4 -4 9 4 5 0 12 -6 15 -10 5 -10 7 1 12 11 5 11 8 0
15 -10 6 -8 9 9 9 13 0 20 4 17 10 -3 6 -2 10 3 10 5 0 9 7 9 15 0 8 -6 15
-13 15 -15 0 -25 24 -31 75 -3 29 0 42 13 52 17 12 16 13 -4 13 -12 0 -22 -6
-22 -13 0 -14 -35 -47 -51 -47 -5 0 -7 -4 -4 -10 4 -6 -13 -10 -44 -10 -28 0
-50 -3 -48 -7 1 -5 -2 -9 -7 -10 -12 -3 -36 -52 -36 -74 0 -13 -7 -19 -21 -19
-11 0 -17 -4 -14 -10 3 -5 2 -10 -4 -10 -5 0 -12 6 -14 13 -4 7 -6 6 -6 -5 -1
-9 5 -19 12 -21 6 -3 -4 -6 -23 -6 -26 -1 -31 -4 -20 -11 12 -8 9 -10 -13 -10
-16 0 -26 -4 -22 -10 3 -6 -4 -10 -17 -10 -18 0 -20 -2 -8 -10 12 -8 9 -10
-13 -10 -16 0 -26 -4 -22 -10 4 -6 -6 -10 -22 -10 -22 0 -25 -2 -13 -10 10 -6
11 -10 3 -10 -8 0 -11 -10 -7 -29 4 -20 2 -30 -10 -34 -9 -4 -16 -13 -16 -21
0 -7 -7 -27 -15 -42 -8 -16 -15 -37 -15 -46 0 -10 -4 -18 -10 -18 -5 0 -10 -7
-10 -15 0 -8 -4 -15 -10 -15 -5 0 -10 -6 -10 -13 0 -7 -9 -19 -20 -27 -11 -8
-20 -20 -20 -27 0 -7 -4 -13 -10 -13 -5 0 -10 -9 -10 -20 0 -11 -6 -20 -12
-20 -9 0 -8 -4 2 -10 10 -6 11 -10 3 -10 -7 0 -13 -12 -13 -26 0 -14 -4 -23
-10 -19 -5 3 -10 -1 -10 -10 0 -9 5 -13 11 -10 7 5 8 1 1 -11 -5 -11 -15 -31
-21 -46 -12 -33 -31 -37 -31 -7 0 11 4 18 9 14 5 -3 12 -1 16 5 3 5 -3 10 -14
10 -12 0 -21 -4 -21 -10 0 -5 -7 -10 -15 -10 -9 0 -15 10 -15 26 0 14 -4 23
-10 19 -6 -3 -10 4 -10 17 0 18 2 20 10 8 7 -11 10 2 10 43 0 58 14 87 42 87
9 1 7 5 -4 14 -21 15 -24 42 -5 49 9 4 9 6 0 6 -6 1 -15 -4 -18 -9 -4 -6 -12
-4 -21 5 -22 22 -34 18 -34 -10 0 -14 -4 -25 -10 -25 -17 0 -11 -25 10 -40 25
-18 26 -42 0 -60 -14 -10 -16 -16 -7 -22 9 -6 9 -8 0 -8 -7 0 -14 -10 -14 -22
-1 -18 -2 -19 -6 -5 -2 9 -8 15 -13 12 -12 -7 4 -68 19 -73 10 -3 12 0 8 12
-4 10 -3 15 3 11 17 -11 11 -35 -9 -35 -20 0 -31 18 -31 50 0 14 -5 17 -22 13
l-23 -5 23 17 c22 16 22 17 5 33 -20 19 -31 58 -14 47 7 -3 11 3 11 16 l0 22
-19 -21 c-22 -26 -28 -27 -28 -7 0 8 7 15 16 15 14 0 14 2 1 10 -12 8 -11 10
8 10 13 0 22 6 22 15 0 8 -4 15 -10 15 -5 0 -10 -4 -10 -10 0 -5 -4 -10 -10
-10 -5 0 -10 13 -10 28 0 16 -8 34 -20 42 -22 16 -28 60 -8 60 6 0 -3 12 -20
26 -34 29 -41 57 -18 80 17 16 30 19 21 4 -3 -5 2 -10 13 -10 10 0 28 -9 39
-19 12 -11 24 -17 27 -14 3 4 6 -4 6 -16 0 -12 4 -20 9 -16 6 3 13 -1 18 -8
10 -16 55 -18 65 -3 5 7 8 6 8 -2 0 -10 3 -10 15 2 17 16 21 41 5 31 -5 -3
-10 1 -10 9 0 9 -4 16 -10 16 -5 0 -10 -6 -10 -12 0 -9 -4 -8 -10 2 -8 13 -10
13 -10 -2 0 -10 -7 -15 -17 -13 -10 2 -21 4 -25 4 -5 1 -8 8 -8 16 0 20 -85
105 -105 105 -18 0 -20 21 -4 37 15 15 -11 43 -40 43 -15 0 -19 5 -16 22 3 12
10 25 16 29 7 4 8 9 1 13 -6 3 -12 0 -15 -6 -3 -9 -10 -7 -23 8 -11 11 -27 23
-36 27 -10 3 -18 15 -18 26 0 27 -32 89 -49 96 -8 3 -21 -1 -31 -10 -9 -8 -19
-12 -22 -9 -7 6 -58 -24 -70 -41 -4 -5 -8 -20 -8 -33 0 -13 -4 -20 -10 -17 -5
3 -9 17 -8 30 1 13 5 22 9 19 4 -2 9 5 12 16 6 22 -8 37 -18 20 -3 -5 -12 -10
-18 -10 -7 0 -6 4 3 10 12 8 13 13 3 30 -7 11 -13 30 -14 42 0 22 -1 22 -9 3
-8 -18 -9 -17 -9 7 -1 33 14 44 28 21 9 -15 10 -12 10 17 0 29 -2 31 -9 15 -7
-16 -9 -12 -9 20 -1 30 -4 36 -11 25 -5 -8 -10 -10 -10 -4 0 7 -13 14 -30 16
-24 4 -30 1 -30 -14 0 -11 -5 -16 -11 -12 -6 3 -8 15 -6 26 4 13 1 18 -7 15
-7 -3 -21 8 -30 24 l-17 29 28 0 c22 0 25 2 13 10 -11 7 4 10 50 11 51 1 59 3
35 9 -23 6 -10 8 50 10 67 2 74 4 40 10 -28 5 -4 8 78 9 86 1 117 4 118 14 0
10 2 10 6 0 3 -9 30 -13 91 -11z m-925 -227 c8 -8 17 -11 21 -8 3 4 6 -1 6 -9
0 -9 6 -19 13 -21 6 -3 2 -6 -10 -6 -13 -1 -23 -5 -23 -9 0 -5 -13 -7 -30 -4
-30 4 -30 4 -30 -47 0 -28 0 -54 1 -57 0 -3 -9 -14 -20 -23 -23 -21 -27 -47
-8 -55 8 -3 7 -8 -5 -16 -24 -15 -23 -30 2 -30 34 0 35 -28 1 -59 -21 -19 -27
-31 -19 -34 7 -3 4 -6 -7 -6 -11 -1 -27 -10 -35 -21 -8 -11 -20 -20 -27 -20
-7 0 -13 -4 -13 -10 0 -5 -7 -10 -15 -10 -8 0 -15 5 -15 10 0 6 -7 10 -15 10
-11 0 -15 -11 -15 -40 l0 -40 -35 20 c-40 22 -55 25 -55 9 0 -5 5 -7 10 -4 6
4 10 -10 10 -34 0 -45 4 -49 26 -26 17 17 45 9 37 -11 -3 -8 -9 -14 -14 -14
-5 0 -9 -7 -9 -15 0 -8 4 -15 9 -15 5 0 11 -18 15 -40 6 -40 12 -45 40 -34 14
5 14 8 1 21 -22 21 -18 33 10 33 14 0 25 5 25 10 0 6 9 10 20 10 11 0 20 -4
20 -10 0 -6 3 -9 8 -9 37 6 51 -2 48 -28 -2 -17 -12 -33 -24 -39 -12 -6 -19
-14 -15 -17 3 -4 -1 -7 -11 -7 -9 0 -14 5 -11 10 3 6 1 10 -4 10 -14 0 -14
-16 -1 -41 9 -15 7 -19 -5 -19 -12 0 -15 -6 -10 -20 5 -14 2 -20 -9 -20 -9 0
-16 -4 -16 -10 0 -5 4 -10 9 -10 5 0 13 -10 17 -22 4 -13 12 -26 18 -30 7 -5
6 -8 -4 -8 -9 0 -22 -9 -30 -20 -9 -12 -26 -20 -44 -20 -16 0 -27 -3 -23 -6 3
-3 -8 -20 -24 -36 -33 -36 -39 -83 -11 -104 28 -22 39 -17 34 16 -3 25 -1 29
12 24 10 -4 18 1 23 12 8 23 51 62 76 70 21 7 21 60 0 85 -12 14 -12 19 2 32
8 9 15 27 15 41 0 14 5 26 11 26 5 0 7 5 4 10 -3 6 4 10 16 10 30 0 48 28 49
75 0 30 3 36 10 25 8 -12 10 -9 10 13 0 16 4 26 10 22 6 -3 10 4 10 16 0 12 3
19 7 16 11 -12 32 27 33 61 0 20 4 31 10 27 6 -3 10 1 10 9 0 9 8 14 20 13 11
-1 20 -6 20 -12 0 -5 5 -3 10 5 6 10 10 11 10 3 0 -7 11 -13 25 -13 14 0 25
-4 25 -8 0 -4 12 -9 28 -10 15 -1 29 -7 30 -12 2 -6 12 -10 23 -10 10 0 19 -4
19 -10 0 -5 6 -10 13 -10 22 0 61 -89 51 -115 -9 -22 -64 -20 -64 3 0 14 -2
14 -9 3 -5 -8 -7 -20 -4 -28 3 -7 -2 -13 -11 -13 -9 0 -16 4 -16 10 0 5 -13
-3 -29 -18 -15 -15 -26 -30 -24 -34 2 -5 -1 -8 -6 -8 -6 0 -11 9 -11 19 0 11
-5 23 -12 27 -8 5 -9 2 -5 -9 4 -11 1 -17 -8 -17 -10 0 -15 -10 -15 -30 0 -16
5 -30 10 -30 6 0 10 -4 10 -10 0 -5 -13 -10 -30 -10 -16 0 -30 -4 -30 -10 0
-5 5 -10 10 -10 6 0 10 -7 10 -15 0 -8 -5 -15 -12 -15 -6 0 -9 -2 -6 -5 12
-12 37 7 30 23 -5 14 -2 14 13 -2 14 -14 16 -21 7 -24 -8 -2 -12 -25 -12 -65
0 -44 -3 -58 -10 -47 -7 11 -10 7 -10 -18 0 -20 -4 -31 -10 -27 -6 4 -10 -14
-11 -47 0 -39 -3 -48 -9 -33 -7 17 -9 14 -9 -13 -1 -19 -5 -31 -11 -27 -5 3
-10 -2 -10 -12 0 -15 -2 -16 -10 -3 -7 11 -10 6 -10 -20 0 -26 3 -31 10 -20 5
8 10 10 10 4 0 -7 9 -14 20 -17 13 -3 20 0 20 9 0 8 5 14 10 14 6 0 10 17 10
38 0 27 3 33 10 22 8 -12 10 -9 10 13 0 16 4 26 10 22 6 -4 10 6 11 22 0 15 3
22 6 14 5 -11 7 -11 14 0 6 10 9 6 9 -14 0 -16 4 -26 10 -22 6 3 10 1 10 -5 0
-14 25 -40 39 -40 6 0 11 6 11 13 0 8 3 8 8 1 11 -16 41 -24 47 -14 4 6 1 10
-6 10 -7 0 -9 3 -6 7 4 3 16 -2 28 -12 16 -15 22 -17 28 -6 7 11 11 10 18 -4
7 -12 13 -14 17 -6 4 6 25 11 47 11 30 0 39 4 40 18 0 13 3 12 12 -6 9 -20 16
-23 41 -18 16 4 31 7 32 9 7 7 -9 46 -17 41 -5 -3 -9 2 -9 10 0 9 -4 16 -10
16 -5 0 -10 16 -10 36 0 46 -15 60 -70 62 -25 1 -46 7 -48 12 -5 13 -132 13
-132 0 0 -5 -9 -10 -20 -10 -13 0 -20 -7 -20 -20 0 -11 -2 -20 -4 -20 -2 0
-11 -3 -20 -6 -10 -4 -16 -1 -16 10 0 10 6 13 15 10 8 -4 15 -2 15 4 0 6 3 18
7 27 5 15 3 16 -14 7 -36 -20 -45 11 -14 46 10 12 27 22 38 22 12 0 19 7 19
20 0 13 -7 20 -19 20 -10 0 -15 5 -12 10 3 6 -4 10 -17 10 -18 0 -20 2 -8 10
8 5 10 10 5 10 -6 0 -12 12 -13 28 -1 21 0 23 8 12 8 -13 10 -12 10 3 0 9 5
17 11 17 5 0 7 -6 3 -12 -5 -9 -2 -9 9 1 12 10 17 10 17 2 0 -7 10 -11 23 -9
22 4 24 9 12 41 -5 12 -2 17 11 16 11 0 14 -3 7 -6 -10 -3 -8 -9 4 -21 12 -12
17 -14 21 -4 2 7 10 19 18 26 8 8 14 19 14 25 0 6 9 11 20 11 11 0 20 5 20 10
0 6 5 10 11 10 5 0 8 -4 5 -9 -3 -5 4 -11 15 -14 11 -3 23 -15 26 -26 3 -12 9
-21 14 -21 5 0 9 -9 9 -20 0 -11 6 -20 13 -21 9 0 9 -2 -1 -6 -8 -3 -2 -14 18
-33 23 -21 30 -37 31 -67 1 -34 2 -35 9 -13 8 24 8 23 9 -7 1 -18 6 -33 11
-33 6 0 10 -12 11 -27 0 -25 1 -26 9 -8 8 19 9 19 9 -2 1 -13 -3 -23 -9 -23
-5 0 -10 -9 -10 -20 0 -11 5 -20 10 -20 6 0 10 -7 10 -16 0 -11 -6 -14 -20 -9
-14 5 -20 2 -20 -10 0 -10 5 -13 11 -9 8 5 10 -1 5 -19 -3 -15 -1 -29 6 -33 6
-4 8 -3 5 4 -4 5 -3 21 2 34 7 15 10 17 10 7 1 -9 8 -19 16 -23 8 -3 15 -13
15 -23 0 -15 2 -16 10 -3 8 12 10 9 10 -12 0 -34 -7 -35 -31 -6 -11 11 -19 17
-19 12 0 -6 6 -16 13 -23 6 -7 8 -12 2 -11 -25 5 -55 -1 -55 -11 0 -5 5 -7 10
-4 6 4 10 -5 10 -19 0 -18 -5 -26 -17 -26 -15 0 -16 -2 -3 -10 8 -5 24 -10 35
-10 17 0 17 2 5 10 -13 8 -12 10 3 10 9 0 17 -4 17 -10 0 -5 7 -10 15 -10 8 0
15 7 15 17 0 9 3 14 6 10 4 -3 13 0 20 8 16 16 19 75 4 75 -5 0 -10 9 -10 19
0 11 5 23 10 26 6 3 10 0 10 -7 0 -8 9 -20 20 -28 11 -8 20 -18 20 -23 0 -5 7
-15 15 -24 8 -8 13 -19 10 -24 -4 -5 1 -9 10 -9 9 0 14 -4 11 -9 -3 -5 1 -14
9 -21 8 -7 12 -16 9 -21 -3 -5 -1 -9 5 -9 10 0 27 -38 23 -52 -1 -5 2 -8 7 -8
5 0 9 -13 9 -28 -1 -15 4 -37 10 -48 7 -12 7 -26 1 -35 -6 -10 -9 -10 -9 -1 0
6 -11 12 -24 12 -13 0 -27 6 -29 13 -3 6 -6 2 -6 -10 -1 -24 -15 -31 -26 -13
-10 16 -29 12 -54 -11 l-23 -22 7 22 c6 21 -8 30 -20 11 -3 -5 -14 -10 -23 -9
-14 0 -13 2 3 9 16 7 13 9 -17 9 -20 1 -39 -4 -41 -11 -4 -8 -6 -7 -6 4 -1 9
5 19 12 21 6 3 -3 6 -20 6 -23 1 -33 6 -33 17 0 8 -4 12 -10 9 -6 -4 -10 7
-10 24 0 26 -4 31 -22 30 -22 0 -22 -1 -3 -9 17 -7 17 -9 3 -9 -10 -1 -18 -5
-18 -11 0 -6 -27 -10 -60 -10 -57 0 -66 5 -61 33 0 4 -11 7 -27 7 -21 0 -24 2
-12 10 12 8 11 10 -7 10 -13 0 -23 5 -23 10 0 6 -12 10 -27 11 -25 0 -26 1 -8
9 18 8 17 9 -8 9 -16 1 -26 -3 -23 -8 4 -5 -2 -7 -13 -4 -10 3 -22 -1 -26 -8
-5 -8 -4 -10 3 -5 7 4 20 2 29 -3 14 -8 6 -10 -34 -11 -29 0 -53 2 -53 4 0 24
17 36 50 36 22 0 42 4 45 10 3 5 -2 9 -12 8 -47 -4 -97 3 -84 11 9 6 0 10 -28
13 -22 2 -41 0 -41 -3 0 -4 -3 -14 -6 -23 -4 -11 0 -16 12 -16 18 -1 18 -1 1
-14 -14 -11 -15 -15 -5 -19 7 -3 3 -6 -9 -6 -13 -1 -23 4 -23 9 0 6 -7 10 -16
10 -8 0 -13 -4 -10 -8 3 -5 -1 -9 -9 -9 -8 0 -12 4 -9 9 3 4 -5 8 -18 8 -18 0
-20 -2 -8 -10 11 -7 2 -10 -32 -10 -27 0 -48 -4 -48 -10 0 -6 -30 -10 -72 -9
-50 0 -67 3 -53 9 15 6 6 9 -35 10 -30 1 -47 4 -37 7 20 5 22 19 5 26 -7 3 -1
6 15 6 15 1 27 -3 27 -9 0 -5 5 -10 11 -10 5 0 7 5 4 10 -3 6 0 10 9 10 8 0
16 -5 18 -11 5 -14 161 -13 166 1 2 6 12 10 23 10 10 0 19 5 19 11 0 5 -4 7
-10 4 -5 -3 -10 0 -10 8 0 8 -7 20 -15 27 -12 10 -15 9 -16 -6 0 -15 -2 -15
-6 -4 -10 25 -36 39 -71 40 -24 0 -35 6 -43 23 l-10 22 5 -22 c3 -17 -1 -23
-15 -23 -10 0 -19 5 -19 10 0 6 -20 10 -45 10 -25 0 -45 -4 -45 -10 0 -5 5
-10 10 -10 6 0 10 -4 10 -10 0 -16 -17 -12 -24 6 -4 9 -1 23 5 30 9 11 8 14
-5 14 -9 0 -16 -4 -16 -10 0 -5 -12 -8 -27 -7 -20 1 -29 -3 -31 -17 -2 -10 2
-22 10 -27 10 -7 9 -9 -4 -9 -9 0 -19 5 -21 10 -3 6 -4 5 -3 -2 4 -18 37 -23
47 -6 7 11 9 10 9 -1 0 -11 4 -10 13 4 13 16 13 15 9 -16 -3 -19 -7 -29 -9
-23 -2 6 -17 8 -36 5 -31 -4 -31 -5 -7 -12 22 -6 20 -7 -12 -8 -21 -1 -38 4
-38 9 0 6 -9 10 -20 10 -11 0 -20 -4 -20 -10 0 -5 -13 -10 -30 -10 -16 0 -30
5 -30 10 0 6 -7 10 -15 10 -9 0 -12 6 -8 17 5 13 2 15 -11 10 -10 -4 -23 -7
-29 -8 -7 0 -3 -4 8 -9 17 -7 16 -9 -9 -9 -16 -1 -26 2 -23 6 8 7 -11 33 -25
33 -5 0 -6 -9 -3 -20 4 -13 2 -20 -7 -21 -7 -1 3 -5 22 -9 26 -6 15 -8 -45 -8
-53 0 -73 2 -60 8 17 7 17 9 3 9 -10 1 -18 6 -18 11 0 9 21 15 43 11 4 0 7 4
7 11 0 9 3 9 12 0 17 -17 31 -15 24 4 -3 8 -2 12 4 9 6 -3 10 -1 10 4 0 6 -9
11 -21 11 -11 0 -18 4 -14 9 11 20 -15 21 -34 2 -13 -13 -16 -21 -8 -25 7 -2
2 -5 -11 -5 -24 -1 -52 19 -52 37 0 6 -9 8 -20 5 -11 -3 -20 -9 -20 -14 0 -5
-4 -9 -10 -9 -12 0 -9 22 5 32 10 8 -37 13 -84 10 -23 -1 -23 0 -5 13 18 14
18 14 -3 15 -14 0 -23 -6 -23 -16 0 -8 -4 -13 -9 -9 -5 3 -16 -2 -24 -10 -9
-8 -23 -15 -32 -15 -13 0 -16 -6 -12 -22 l6 -23 -19 23 c-18 21 -78 33 -65 12
3 -5 15 -10 27 -10 11 0 22 -8 25 -20 3 -11 14 -20 25 -20 10 0 16 -4 13 -10
-3 -5 -17 -10 -31 -10 -14 0 -22 4 -19 10 4 6 -7 10 -24 10 -17 0 -31 -4 -31
-10 0 -5 -7 -10 -16 -10 -14 0 -14 1 0 16 22 21 20 24 -10 24 -14 0 -23 -4
-19 -10 10 -16 -5 -12 -38 12 -17 12 -27 17 -23 10 4 -7 1 -12 -8 -12 -9 0
-16 6 -16 14 0 8 -6 17 -12 19 -10 4 -10 8 -2 14 6 4 20 26 31 48 34 68 77
140 85 143 4 2 6 7 3 12 -3 5 0 14 7 22 7 7 14 20 16 28 2 8 8 18 14 21 6 4 5
9 -3 12 -8 3 -3 6 11 6 20 1 22 3 10 11 -10 6 -11 10 -2 10 6 0 12 9 12 20 0
11 5 20 11 20 5 0 8 4 5 9 -7 11 39 103 48 94 3 -3 6 2 6 13 0 16 2 17 10 4 8
-12 10 -9 10 13 0 16 4 26 10 22 6 -3 10 4 10 17 0 18 2 20 10 8 8 -12 10 -10
10 10 0 20 2 22 10 10 8 -13 10 -12 10 3 0 10 5 15 10 12 6 -3 10 1 10 10 0 9
5 13 10 10 6 -3 10 1 10 10 0 9 5 13 10 10 6 -3 10 -1 10 5 0 15 46 60 54 53
3 -4 6 1 6 11 0 9 5 14 10 11 6 -3 10 2 10 11 0 10 3 15 6 11 6 -5 15 0 49 31
7 6 19 12 26 12 7 0 10 3 6 6 -7 8 17 34 32 34 5 0 8 9 6 20 -2 13 2 20 11 20
8 0 14 5 14 10 0 6 7 10 16 10 8 0 13 4 10 9 -3 5 6 12 19 15 14 4 23 11 20
16 -3 6 1 10 9 10 9 0 16 5 16 10 0 6 9 10 21 10 11 0 18 4 15 8 -2 4 -1 14 5
22 7 13 9 13 9 1 0 -9 6 -7 19 7 10 12 26 22 35 22 9 0 16 7 16 16 0 8 4 13 9
10 5 -4 11 -2 13 3 1 5 14 11 28 13 14 1 30 8 37 14 7 7 38 20 69 30 31 9 58
23 61 29 2 7 14 13 26 13 12 0 40 9 62 20 48 24 127 28 148 7z m2902 -265 c12
-5 14 -9 6 -9 -10 -1 -7 -7 7 -20 12 -10 19 -21 15 -25 -3 -3 1 -6 10 -6 10 0
17 -4 17 -10 0 -5 7 -10 16 -10 8 0 33 -18 54 -40 21 -22 46 -40 54 -40 9 0
16 -7 16 -15 0 -8 4 -15 10 -15 15 0 60 -49 60 -66 0 -8 5 -12 10 -9 6 3 10
-1 10 -10 0 -9 5 -13 10 -10 6 3 10 1 10 -5 0 -6 20 -31 45 -56 25 -25 43 -49
40 -54 -3 -5 5 -12 18 -16 18 -4 23 -11 20 -25 -3 -11 0 -19 7 -19 15 0 41
-26 33 -34 -4 -3 2 -6 13 -7 18 0 18 -1 -1 -9 -15 -6 -16 -9 -4 -9 9 -1 21
-12 27 -26 7 -14 17 -36 24 -50 6 -13 16 -21 21 -18 6 4 8 0 4 -10 -4 -11 -1
-17 8 -17 9 0 15 -10 16 -27 0 -25 1 -26 9 -8 8 18 9 17 9 -8 1 -16 5 -26 11
-22 6 4 10 -7 10 -27 0 -25 3 -29 10 -18 8 12 10 9 10 -12 0 -14 -6 -28 -12
-31 -7 -2 -9 -8 -5 -13 5 -5 15 -1 23 10 14 19 14 19 14 -3 0 -12 4 -20 9 -16
5 3 13 -20 17 -51 4 -37 9 -51 15 -43 5 9 9 -15 9 -59 0 -46 4 -71 10 -67 10
6 13 -24 10 -102 -1 -37 1 -43 19 -43 18 0 21 -6 21 -45 0 -25 5 -45 10 -45 6
0 10 -16 10 -35 0 -19 -4 -35 -10 -35 -5 0 -10 5 -10 10 0 6 -5 10 -11 10 -5
0 -8 -3 -5 -8 2 -4 -2 -16 -10 -27 -12 -16 -14 -17 -14 -2 0 9 -4 17 -10 17
-5 0 -10 7 -10 15 0 8 -3 14 -7 14 -32 -5 -37 24 -17 89 5 17 3 23 -7 21 -8
-1 -30 2 -49 8 -20 6 -51 8 -70 5 -32 -5 -33 -6 -10 -12 18 -4 27 -14 30 -35
5 -28 6 -29 18 -10 10 17 11 13 6 -25 -4 -25 -7 -47 -6 -50 0 -33 4 -39 25
-38 28 1 67 -12 67 -23 0 -17 -21 -20 -37 -4 -11 12 -18 13 -23 5 -8 -13 -40
13 -40 33 0 6 -6 3 -13 -8 -9 -11 -16 -14 -21 -7 -3 6 0 16 7 24 9 8 11 21 6
33 -7 19 -10 16 -13 -15 0 -8 -9 -14 -18 -14 -10 1 -20 -7 -23 -17 -4 -11 -11
-17 -16 -13 -6 3 -4 15 6 30 8 13 11 24 6 24 -6 0 -15 -8 -20 -17 -6 -10 -11
-12 -11 -5 0 6 -7 12 -16 12 -14 0 -14 -3 -4 -15 10 -12 10 -15 -3 -15 -9 0
-22 7 -31 15 -17 18 -42 20 -52 4 -4 -8 -9 -8 -18 1 -7 7 -7 13 -1 18 6 4 15
14 22 22 9 12 6 15 -18 17 -23 2 -29 -2 -29 -17 0 -11 -5 -20 -11 -20 -6 0 -8
9 -4 21 7 20 4 21 -21 15 -16 -4 -47 -7 -69 -8 -22 0 -46 -5 -52 -11 -18 -13
-16 1 1 19 8 8 32 14 53 14 22 0 48 6 59 14 18 13 18 15 2 21 -11 4 -24 0 -34
-10 -14 -13 -19 -14 -25 -3 -5 7 -9 8 -9 2 0 -6 -6 -11 -12 -12 -7 -1 -32 -5
-56 -10 -34 -8 -45 -7 -49 4 -3 8 -9 14 -14 14 -14 0 -11 -28 4 -34 6 -3 -25
-2 -70 1 -45 3 -127 6 -183 7 -55 1 -100 4 -100 9 0 4 5 7 10 7 6 0 10 10 10
23 0 20 -5 23 -50 25 -30 1 -50 -2 -50 -9 0 -5 -4 -7 -10 -4 -5 3 -10 -1 -10
-9 0 -9 -9 -16 -20 -16 -11 0 -20 5 -20 10 0 6 -9 10 -20 10 -11 0 -20 -4 -20
-10 0 -5 -12 -10 -27 -10 -22 0 -25 2 -13 10 13 8 12 10 -2 10 -10 0 -18 4
-18 9 0 5 -8 11 -17 14 -14 3 -11 7 12 17 54 24 73 23 71 -2 -1 -16 4 -22 16
-20 9 1 19 -2 23 -8 3 -6 16 0 31 15 29 29 30 35 4 35 -11 0 -20 -7 -20 -15 0
-8 -4 -15 -10 -15 -5 0 -10 6 -10 13 0 8 -4 7 -10 -3 -8 -12 -10 -9 -10 13 0
20 5 27 20 27 11 0 20 6 20 13 0 7 3 8 8 2 10 -14 55 -39 47 -26 -4 7 11 11
45 11 43 0 53 -3 57 -20 6 -21 18 -26 27 -11 10 15 113 12 126 -4 6 -8 9 -18
7 -22 -3 -5 12 -7 33 -5 32 3 44 -1 66 -23 19 -20 29 -24 38 -15 8 8 7 13 -4
20 -13 9 -13 11 0 20 8 5 12 10 8 10 -4 0 -3 12 3 26 8 24 8 25 -6 14 -8 -7
-15 -20 -15 -30 0 -18 -23 -34 -34 -23 -3 4 -6 15 -6 25 0 14 -6 18 -22 16
-14 -2 -22 2 -21 10 2 7 -7 12 -22 12 -14 0 -25 6 -25 13 0 8 -3 8 -9 -2 -10
-16 -74 -18 -79 -2 -2 6 -13 11 -23 11 -11 0 -17 -4 -14 -10 3 -5 -1 -10 -9
-10 -11 0 -16 9 -16 30 0 24 -4 30 -21 30 -11 0 -17 -4 -14 -10 4 -6 -11 -10
-37 -10 -24 0 -49 -5 -56 -12 -9 -9 -12 -9 -12 0 0 7 -16 12 -37 13 -38 1 -38
1 -8 9 28 7 26 8 -15 9 -29 1 -40 4 -32 10 8 4 14 10 15 13 4 10 -33 38 -50
37 -14 0 -13 -2 5 -10 14 -5 22 -16 20 -26 -1 -10 1 -24 5 -30 5 -9 3 -13 -7
-13 -9 0 -16 9 -16 20 0 11 -6 20 -12 20 -9 0 -8 4 2 10 12 8 11 10 -7 10 -24
0 -32 25 -10 33 6 3 -3 6 -21 6 -19 1 -31 5 -27 11 3 6 1 10 -5 10 -6 0 -8 5
-5 10 3 6 1 10 -5 10 -6 0 -8 5 -5 10 3 6 -1 10 -9 10 -9 0 -16 4 -16 9 0 5
-7 12 -16 15 -8 3 -13 2 -9 -3 3 -5 -1 -12 -7 -14 -8 -3 -6 -6 5 -6 10 -1 15
-5 12 -11 -3 -5 -1 -10 4 -10 6 0 11 -9 11 -20 0 -11 -4 -20 -8 -20 -4 0 -9
-12 -10 -26 -2 -22 1 -24 19 -19 15 5 19 4 15 -4 -4 -6 -28 -11 -54 -11 -34 0
-43 3 -32 10 11 7 3 10 -30 11 -25 0 -39 3 -32 6 24 10 11 19 -20 16 -25 -3
-30 -2 -18 6 13 9 12 11 -3 11 -10 0 -15 5 -12 10 9 15 -4 12 -21 -4 -8 -8
-14 -23 -14 -33 0 -15 -2 -16 -10 -3 -8 13 -10 12 -10 -2 0 -10 6 -18 13 -19
10 0 10 -2 0 -6 -7 -2 -13 -16 -13 -29 0 -14 4 -22 10 -19 6 4 10 -8 10 -30 0
-22 4 -34 10 -30 6 3 10 -1 10 -9 0 -10 -7 -13 -22 -10 -13 3 -53 5 -90 5 -38
-1 -68 3 -68 8 0 5 -11 11 -24 13 -17 4 -23 1 -19 -9 3 -7 10 -13 15 -13 5 0
19 -10 30 -22 13 -16 21 -19 24 -10 8 17 34 15 34 -4 0 -8 5 -12 10 -9 6 3 10
1 10 -4 0 -6 5 -11 11 -11 5 0 7 4 4 10 -4 6 1 7 11 3 11 -4 13 -8 6 -11 -7
-2 -12 -10 -12 -18 0 -8 -9 -14 -20 -14 -11 0 -20 7 -20 15 0 8 -7 15 -15 15
-18 0 -20 -16 -2 -23 6 -3 2 -6 -10 -6 -12 -1 -26 6 -31 15 -7 13 -26 16 -106
15 -60 -1 -96 2 -96 9 0 5 10 10 22 10 31 0 14 13 -24 17 -17 2 -33 5 -35 6
-2 2 -4 22 -5 45 -1 32 4 46 20 61 24 20 29 46 10 57 -8 5 -9 2 -5 -9 5 -14 0
-17 -31 -18 -30 0 -33 -2 -17 -9 17 -7 17 -9 3 -9 -23 -1 -24 -21 -1 -21 14 0
15 -2 4 -12 -10 -11 -15 -9 -26 6 -13 18 -14 17 -20 -6 -4 -15 -14 -24 -28
-25 -12 -1 -23 -7 -25 -13 -2 -5 -8 -10 -13 -10 -6 0 -7 5 -4 10 3 6 -1 10 -9
10 -9 0 -16 -4 -16 -10 0 -5 -9 -10 -20 -10 -11 0 -20 5 -20 11 0 5 -5 7 -10
4 -8 -5 -8 -11 0 -20 9 -10 3 -13 -25 -12 -20 1 -40 -5 -44 -12 -5 -7 -20 -11
-37 -8 l-29 4 33 8 c17 4 32 11 32 16 0 5 9 9 21 9 12 0 23 8 26 19 3 12 15
21 32 23 14 2 25 8 24 14 -1 7 12 15 30 19 29 6 30 8 12 16 -14 6 -5 8 33 6
38 -1 52 2 52 12 0 9 8 11 24 7 14 -3 28 -1 32 6 4 6 3 8 -2 5 -6 -3 -16 -2
-24 4 -11 6 -5 9 20 9 19 0 44 8 55 17 16 13 17 15 3 10 -10 -4 -18 -4 -18 -1
0 12 51 54 65 54 9 0 13 5 10 10 -3 6 3 10 15 10 12 0 18 5 15 10 -4 6 8 10
30 10 20 0 34 4 31 8 -10 16 12 33 50 39 40 7 64 23 64 43 0 6 5 8 10 5 6 -3
10 4 11 17 0 22 1 22 9 3 7 -17 9 -14 9 13 1 19 5 31 11 27 6 -3 10 4 10 17 0
18 2 20 10 8 8 -12 10 -9 10 13 0 16 4 26 9 23 11 -7 51 27 51 43 0 7 11 23
25 36 20 21 34 25 85 25 l60 0 -5 -27 c-2 -16 -9 -29 -15 -31 -5 -2 -10 -13
-10 -23 0 -11 -4 -17 -10 -14 -6 4 -10 -8 -10 -30 0 -22 -4 -34 -10 -30 -6 4
-10 -7 -10 -24 0 -17 -5 -31 -11 -31 -5 0 -7 -4 -4 -10 3 -5 -2 -10 -12 -10
-15 0 -16 -2 -3 -10 12 -8 10 -10 -10 -10 -19 0 -22 -2 -10 -9 8 -6 18 -7 22
-5 4 3 8 -9 8 -25 0 -35 6 -37 35 -15 19 14 19 16 3 28 -26 19 -24 66 2 66 11
0 20 4 20 9 0 5 7 11 15 15 12 4 15 -3 14 -37 -1 -35 -2 -38 -9 -17 l-7 25 -8
-29 c-6 -20 -4 -31 3 -34 7 -2 12 -12 12 -23 0 -16 7 -19 40 -19 38 0 40 2 40
29 0 17 -4 33 -10 36 -5 3 -10 14 -9 23 0 14 2 14 6 2 4 -8 14 -22 24 -31 10
-9 16 -19 12 -23 -3 -3 -1 -6 5 -6 7 0 12 -7 12 -15 0 -8 4 -15 10 -15 5 0 9
-3 9 -7 -1 -5 -1 -18 0 -30 1 -29 36 -32 38 -3 1 11 -2 20 -8 20 -5 0 -9 9 -9
20 0 11 7 20 16 20 8 0 12 -4 9 -10 -3 -5 -1 -10 5 -10 6 0 8 -4 5 -10 -3 -5
1 -10 9 -10 9 0 16 -9 16 -20 0 -12 7 -20 18 -20 14 0 15 2 2 10 -12 8 -12 10
5 10 15 0 20 -7 20 -25 0 -16 -5 -23 -12 -20 -15 5 -16 -4 -4 -24 6 -10 12 -5
22 18 8 17 17 31 21 31 5 0 8 9 8 20 0 11 -4 20 -10 20 -5 0 -10 5 -10 10 0 6
7 10 15 10 8 0 14 -3 14 -7 -4 -23 3 -33 21 -33 11 0 20 5 20 10 0 6 -7 10
-15 10 -8 0 -15 5 -15 11 0 5 5 7 10 4 6 -3 10 1 10 9 0 9 5 16 10 16 6 0 10
7 10 15 0 8 5 15 11 15 6 0 9 6 6 13 -2 6 -11 11 -21 9 -9 -2 -16 1 -16 6 0 6
-7 12 -14 15 -11 4 -13 1 -9 -11 3 -9 3 -14 -2 -10 -4 4 -14 0 -21 -10 -12
-16 -13 -15 -14 6 0 13 -4 20 -10 17 -5 -3 -10 -1 -10 5 0 7 -7 9 -16 6 -8 -3
-25 3 -36 14 -12 11 -27 20 -33 20 -6 0 -17 16 -25 35 -8 19 -17 35 -22 35 -4
0 -8 9 -8 20 0 11 -7 20 -16 20 -8 0 -12 5 -9 10 3 6 -1 10 -10 10 -9 0 -13
-4 -10 -10 12 -19 -7 -10 -25 12 -21 26 -8 58 25 58 17 0 17 2 5 10 -12 8 -10
10 8 10 19 0 22 -4 17 -20 -4 -12 -2 -20 5 -20 6 0 8 5 5 10 -3 6 5 10 19 10
13 0 27 -6 30 -12 3 -7 3 -3 0 10 -4 17 -1 22 15 22 26 0 26 7 4 33 -15 17
-16 20 -2 15 9 -4 22 -2 30 3 10 6 4 9 -18 9 -18 0 -33 5 -33 11 0 6 9 9 20 6
25 -6 28 26 5 49 -16 17 -11 63 9 76 35 23 46 34 46 46 0 7 5 10 10 7 6 -4 10
7 10 27 0 25 3 29 10 18 8 -13 10 -12 10 3 0 9 5 17 10 17 6 0 10 8 10 18 0
14 2 15 10 2 8 -12 10 -9 10 13 0 16 4 26 10 22 6 -3 10 1 10 10 0 9 5 13 10
10 6 -3 10 0 10 7 0 8 9 20 20 28 11 8 20 22 20 32 0 10 7 18 15 18 8 0 15 9
15 20 0 11 7 20 16 20 8 0 12 5 9 10 -4 6 5 10 19 10 14 0 26 4 26 9 0 9 30
17 70 19 8 0 24 -3 35 -8z m-4030 -1232 c14 -6 25 -17 25 -25 0 -7 7 -13 15
-13 9 0 21 -11 27 -25 6 -14 15 -25 20 -25 4 0 8 -7 8 -16 0 -8 5 -12 10 -9 6
3 10 -4 10 -17 0 -18 2 -20 10 -8 8 13 10 13 10 -2 0 -19 40 -13 40 6 0 6 5 4
10 -4 8 -12 10 -10 11 10 0 14 3 19 6 12 4 -9 10 -7 23 8 9 11 30 22 46 24 44
6 74 17 74 29 0 6 3 7 6 4 9 -9 -16 -38 -27 -31 -5 3 -9 -2 -9 -10 0 -9 6 -16
13 -16 8 0 7 -3 -3 -10 -12 -7 -12 -12 -2 -22 9 -9 12 -9 12 0 0 7 11 12 25
12 30 0 24 -23 -17 -62 -19 -18 -24 -28 -16 -31 8 -3 6 -6 -5 -6 -29 -1 -64
-44 -69 -84 -4 -33 -2 -37 19 -37 13 0 23 -6 23 -12 0 -9 4 -8 10 2 5 8 10 10
10 4 0 -7 9 -14 20 -17 13 -3 20 0 20 9 0 8 5 14 10 14 6 0 9 3 9 8 -3 20 3
32 16 32 9 0 27 11 40 24 l24 24 -22 9 c-14 7 -17 12 -9 17 7 4 12 2 12 -3 0
-6 9 -11 21 -11 11 0 17 5 14 10 -3 6 3 10 14 10 12 0 21 5 21 10 0 6 7 10 15
10 8 0 24 9 35 20 l20 20 -26 0 c-14 0 -23 4 -20 9 3 5 -3 11 -14 14 -26 7
-26 37 0 37 11 0 20 -4 20 -10 0 -5 11 -10 25 -10 14 0 25 5 25 10 0 6 9 10
21 10 11 0 17 -5 14 -10 -4 -6 -11 -8 -16 -5 -5 4 -9 -1 -9 -9 0 -9 4 -16 9
-16 5 0 11 -12 13 -27 2 -21 9 -29 27 -31 25 -4 62 -32 41 -32 -7 0 -6 -6 4
-15 21 -21 26 -19 26 13 0 16 8 34 20 42 11 8 20 22 20 32 0 10 5 18 10 18 6
0 10 9 10 20 0 11 5 20 11 20 5 0 7 -4 4 -10 -3 -5 1 -10 9 -10 9 0 16 5 16
10 0 6 9 10 20 10 11 0 20 -4 20 -10 0 -5 14 -10 31 -10 17 0 28 4 24 10 -4 6
7 10 24 10 17 0 31 -4 31 -10 0 -5 7 -10 15 -10 8 0 15 -4 15 -10 0 -5 9 -10
21 -10 11 0 17 -4 14 -10 -3 -5 -1 -10 5 -10 7 0 10 -6 7 -14 -3 -8 3 -23 14
-35 11 -12 15 -21 9 -21 -6 0 -4 -7 5 -17 9 -9 20 -12 23 -7 4 5 16 14 27 21
11 6 19 16 18 22 -2 6 6 11 17 11 13 0 20 -7 20 -20 0 -14 -7 -20 -24 -20 -19
0 -23 -4 -19 -20 4 -16 14 -20 43 -20 22 0 40 5 43 13 2 6 7 9 11 6 4 -4 0
-14 -9 -23 -15 -15 -14 -16 14 -16 18 0 31 5 32 13 0 10 2 10 6 0 2 -7 15 -13
28 -13 13 0 26 6 29 13 5 10 7 10 12 0 3 -7 12 -13 20 -13 8 0 14 -4 14 -10 0
-5 8 -10 18 -10 9 0 13 4 7 8 -5 4 -12 16 -13 27 -5 28 -12 32 -22 15 -7 -11
-10 -11 -10 -2 0 7 7 15 14 18 11 4 7 14 -19 40 -19 19 -41 34 -50 34 -8 0
-15 5 -15 10 0 7 -7 7 -21 -1 -15 -8 -19 -8 -15 0 4 6 0 11 -9 11 -10 0 -13 5
-9 12 4 6 3 8 -4 4 -6 -3 -18 1 -26 10 -12 12 -16 12 -17 2 0 -10 -2 -10 -6 0
-2 6 -13 12 -24 12 -10 0 -19 4 -19 9 0 5 -12 14 -27 19 -26 10 -26 11 -5 12
32 3 36 4 51 14 7 5 16 5 20 0 3 -5 17 -11 31 -13 14 -1 28 -8 32 -14 5 -8 9
-6 13 4 6 17 31 19 55 4 8 -5 25 -9 39 -10 13 0 26 -6 29 -13 2 -7 10 -12 18
-12 8 0 14 -4 14 -10 0 -6 27 -10 61 -10 37 0 58 4 54 10 -3 6 3 10 15 10 33
0 21 -34 -13 -38 -15 -2 -25 -8 -22 -13 4 -5 -9 -9 -27 -9 -25 0 -29 -3 -18
-10 11 -7 7 -10 -20 -11 -19 -1 -28 -3 -19 -6 13 -3 16 -15 15 -49 -2 -44 -2
-44 31 -44 18 0 33 -4 33 -10 0 -5 -7 -10 -14 -10 -12 0 -14 -10 -9 -47 8 -69
19 -86 43 -70 11 6 20 16 20 20 0 14 24 34 43 34 9 0 17 -6 17 -12 0 -17 43
-10 68 10 11 10 18 24 15 31 -3 8 0 14 6 14 14 0 15 -27 1 -35 -5 -3 -10 -15
-10 -26 0 -11 -4 -17 -10 -14 -5 3 -10 -1 -10 -9 0 -15 -18 -20 -77 -19 -25 0
-31 -12 -10 -20 9 -4 8 -8 -3 -16 -11 -8 -11 -11 -2 -12 22 -3 27 -4 40 -12 7
-5 12 -4 12 2 0 6 5 11 10 11 6 0 10 -7 10 -16 0 -11 6 -14 20 -9 14 5 20 2
20 -10 0 -9 -4 -13 -10 -10 -5 3 -10 0 -10 -7 0 -9 -3 -9 -10 2 -9 13 -10 13
-10 0 0 -10 -11 -15 -30 -16 -16 -1 -27 3 -24 7 3 5 -1 9 -9 9 -8 0 -17 -10
-20 -22 l-6 -22 -18 22 c-10 12 -27 33 -38 47 -24 29 -65 34 -65 7 0 -10 -5
-23 -11 -29 -19 -19 -6 -57 21 -64 25 -7 25 -7 3 -14 -13 -4 -20 -11 -17 -16
3 -5 0 -9 -5 -9 -6 0 -11 -13 -11 -30 0 -23 -4 -30 -20 -30 -11 0 -20 5 -20
10 0 6 -13 10 -29 10 -21 0 -32 -6 -36 -20 -5 -16 -15 -20 -56 -20 -27 0 -49
5 -49 10 0 6 -18 10 -40 10 l-40 0 0 -80 0 -80 40 0 c31 0 40 -4 40 -17 0 -15
-2 -16 -10 -3 -7 11 -10 7 -10 -17 0 -23 -5 -33 -15 -33 -8 0 -15 -4 -15 -10
0 -5 -5 -10 -10 -10 -6 0 -24 -14 -41 -31 -21 -21 -35 -28 -49 -24 -16 5 -20
2 -20 -19 0 -14 -4 -26 -10 -26 -5 0 -7 7 -4 15 7 17 -11 21 -22 4 -4 -8 -9
-7 -15 2 -8 12 -10 12 -18 0 -5 -8 -14 -10 -22 -6 -9 6 -11 3 -6 -8 4 -11 1
-17 -9 -17 -20 0 -47 -27 -42 -42 3 -7 12 -4 26 10 12 12 22 19 22 15 0 -4 5
-2 12 5 16 16 36 15 54 -3 16 -16 16 -15 -26 -19 -8 -1 -14 -7 -13 -14 2 -7
-4 -12 -13 -12 -8 0 -12 -4 -9 -10 3 -5 -2 -10 -12 -10 -15 0 -16 -2 -3 -10
12 -8 9 -10 -12 -10 -16 0 -28 5 -28 10 0 6 -9 10 -20 10 -11 0 -20 -4 -20
-10 0 -5 -8 -10 -17 -10 -14 0 -15 2 -4 9 9 6 5 9 -13 9 -14 0 -26 -4 -26 -9
0 -5 -9 -9 -20 -9 -14 0 -20 -7 -20 -22 0 -19 -2 -20 -10 -8 -8 12 -10 11 -10
-7 0 -14 -6 -23 -16 -23 -8 0 -12 5 -9 10 3 6 1 10 -4 10 -6 0 -11 -9 -11 -20
0 -22 -15 -27 -23 -7 -4 9 -8 9 -15 -2 -5 -7 -16 -10 -23 -7 -8 4 -5 0 5 -8
19 -16 19 -16 -5 -16 -17 0 -20 -3 -11 -9 11 -7 10 -9 -3 -15 -21 -8 -10 -26
16 -26 11 0 19 -7 19 -17 1 -17 1 -17 14 0 16 20 27 23 20 3 -3 -8 1 -17 8
-22 7 -4 10 -4 6 1 -11 12 10 44 27 41 8 -1 16 -4 17 -7 2 -2 1 -3 -1 -2 -5 3
-31 -24 -31 -33 0 -3 7 -1 15 6 9 7 19 9 23 5 4 -4 1 -10 -5 -12 -7 -3 -13
-14 -13 -26 0 -18 -2 -19 -10 -7 -8 13 -10 12 -10 -4 0 -11 -5 -16 -14 -13
-10 4 -12 -1 -9 -16 4 -18 3 -19 -6 -7 -6 8 -11 27 -11 43 0 15 -4 27 -10 27
-5 0 -10 -4 -10 -10 0 -5 -9 -10 -20 -10 -11 0 -20 -4 -20 -10 0 -15 -49 -12
-66 4 -8 8 -14 26 -14 41 0 14 -7 28 -16 32 -13 5 -13 7 -2 14 9 6 6 9 -12 9
-20 0 -22 2 -10 10 12 8 10 10 -10 11 -16 1 -19 3 -8 6 16 4 16 6 0 24 -9 10
-29 19 -44 19 -25 0 -26 2 -18 32 5 17 7 41 4 52 -5 21 -54 52 -54 34 0 -5 -5
-6 -11 -3 -6 4 -8 13 -5 21 3 8 1 14 -4 14 -6 0 -10 -8 -10 -17 -1 -17 -1 -17
-11 0 -6 9 -14 15 -20 12 -5 -4 -9 5 -9 19 0 35 -20 33 -21 -1 l-2 -28 -4 28
c-4 27 -17 35 -28 17 -14 -22 -32 -10 -27 18 5 25 4 26 -13 12 -17 -13 -18
-13 -13 2 4 9 4 19 0 23 -3 3 -12 -11 -18 -32 l-12 -38 -1 48 c-1 26 -5 47
-11 47 -5 0 -10 15 -11 33 -1 30 -1 30 -8 7 -6 -19 -9 -10 -15 41 -4 36 -14
78 -22 94 -8 15 -14 34 -14 41 0 8 -4 14 -10 14 -5 0 -10 18 -10 41 0 22 -5
50 -11 61 -11 21 -12 21 -25 3 -13 -17 -14 -17 -14 12 0 32 -13 43 -53 43 -16
0 -18 3 -9 9 8 4 12 19 10 32 -2 18 -10 25 -30 27 -26 3 -41 22 -18 22 6 0 10
7 10 15 0 8 -7 15 -15 15 -18 0 -19 4 -2 30 10 17 9 22 -3 31 -11 8 -12 12 -2
16 17 7 15 23 -3 23 -18 0 -20 16 -2 23 7 3 4 6 -6 6 -18 1 -47 23 -47 35 0 3
8 6 18 7 14 0 14 2 -3 9 -18 7 -17 8 9 15 l29 8 -29 13 c-19 8 -23 13 -11 13
9 1 17 6 17 11 0 6 5 10 11 10 8 0 8 -5 -1 -15 -8 -9 -8 -15 -2 -15 6 0 17 -3
26 -6 9 -3 16 -1 16 6 0 6 -4 8 -10 5 -17 -11 -11 7 8 21 15 12 14 13 -13 14
-16 1 -24 4 -17 7 14 6 17 53 2 53 -5 0 -10 -9 -10 -20 0 -11 -5 -20 -11 -20
-5 0 -7 -4 -4 -10 3 -5 -3 -10 -14 -10 -10 0 -21 -6 -24 -12 -4 -10 -7 -10
-18 0 -11 10 -10 12 5 12 10 0 14 4 10 12 -4 7 -3 8 4 4 7 -4 12 -1 12 8 0 9
7 16 15 16 8 0 15 5 15 10 0 6 -7 10 -15 10 -15 0 -19 10 -16 43 1 9 -3 17 -9
17 -6 0 -8 -4 -5 -10 3 -5 -1 -10 -9 -10 -9 0 -16 -12 -19 -32 l-3 -33 -9 35
c-8 34 -9 34 -16 10 -5 -19 -7 -15 -7 20 -1 34 2 40 8 25 8 -19 9 -19 9 1 1
12 8 25 17 28 12 5 14 1 9 -15 -5 -15 -4 -19 4 -15 6 4 11 15 11 25 0 16 21
32 60 44 29 10 119 7 145 -5z m2947 -140 c3 -7 22 -13 43 -13 28 0 39 -4 41
-17 3 -22 -12 -24 -20 -3 -4 11 -13 14 -31 9 -18 -4 -32 -1 -45 11 -10 9 -25
15 -32 12 -8 -4 -5 -8 10 -13 27 -8 24 -30 -4 -27 -10 1 -22 -4 -26 -10 -4 -7
-29 -12 -59 -11 -45 0 -49 -1 -33 -13 10 -7 42 -13 73 -12 41 0 50 3 36 9 -12
5 41 9 140 9 117 1 156 4 145 12 -13 9 -12 10 3 5 11 -3 17 0 17 9 0 19 70 21
70 3 1 -7 7 -2 16 12 14 23 14 23 9 3 -6 -21 -3 -23 39 -23 25 0 46 -4 46 -10
0 -5 -6 -10 -12 -10 -9 0 -8 -4 2 -10 10 -6 11 -10 3 -10 -7 0 -13 -9 -13 -20
0 -11 -4 -20 -9 -20 -11 0 -23 29 -16 40 7 11 -13 23 -44 26 -13 2 -27 7 -30
12 -7 11 -41 12 -41 1 0 -7 28 -17 95 -32 11 -3 2 -5 -20 -6 -23 0 -46 4 -53
11 -7 7 -12 8 -12 2 0 -5 -4 -3 -9 5 -8 12 -12 12 -26 -2 -15 -16 -14 -17 14
-17 24 0 31 -4 31 -20 0 -11 7 -20 16 -20 8 0 12 -4 9 -10 -4 -6 8 -10 27 -11
l33 -1 -30 -8 c-28 -7 -28 -8 12 -9 36 -1 40 -3 36 -21 -5 -17 0 -20 31 -20
20 0 36 -4 36 -10 0 -5 9 -10 20 -10 11 0 20 -4 20 -10 0 -5 -4 -10 -10 -10
-5 0 -10 -7 -10 -15 0 -9 -7 -18 -15 -21 -8 -4 -15 -12 -15 -19 0 -8 -9 -17
-20 -20 -11 -3 -20 -11 -20 -16 0 -6 -13 -2 -30 7 -20 13 -30 27 -32 48 -4 40
-40 48 -69 15 -18 -21 -19 -21 -20 -3 -1 19 -1 19 -6 0 -4 -15 -7 -16 -14 -5
-6 10 -9 7 -9 -13 0 -14 -6 -29 -12 -32 -10 -5 -10 -7 0 -12 6 -3 12 -13 13
-22 0 -14 2 -13 9 3 7 15 9 9 9 -25 1 -33 4 -41 11 -30 8 12 10 10 11 -10 0
-23 1 -23 9 -5 6 14 9 2 9 -42 1 -35 5 -63 11 -63 6 0 10 -10 9 -22 l0 -23
-11 23 c-15 30 -23 28 -26 -5 -1 -22 0 -24 8 -13 8 13 10 13 10 -1 0 -9 -7
-19 -15 -23 -9 -3 -15 0 -15 9 0 8 -9 15 -20 15 -11 0 -20 -4 -20 -10 0 -5 5
-10 10 -10 19 0 61 -48 47 -53 -7 -3 -2 -6 11 -6 25 -1 29 -25 8 -47 -13 -12
-15 -11 -21 6 -3 11 -15 20 -26 20 -19 0 -21 5 -22 47 0 12 -4 20 -8 17 -8 -4
-13 8 -11 26 0 3 -11 6 -26 7 -15 1 -20 -1 -12 -4 21 -9 39 -35 40 -57 0 -17
-2 -17 -20 4 -11 13 -20 27 -20 33 0 5 -16 7 -36 5 l-36 -4 26 19 c29 21 35
47 10 47 -8 0 -12 5 -9 10 3 6 -2 10 -12 10 -15 0 -16 2 -3 10 9 6 10 10 3 10
-6 0 -15 -4 -18 -10 -3 -5 -16 -10 -28 -11 -15 0 -17 -2 -7 -6 10 -4 4 -10
-20 -19 -19 -7 -27 -13 -17 -13 9 -1 17 -6 17 -12 0 -5 5 -7 11 -3 7 4 10 1 7
-7 -3 -8 -15 -16 -27 -17 -15 -2 -21 0 -17 7 4 6 2 11 -3 11 -6 0 -10 11 -9
24 1 14 7 22 14 19 7 -2 15 0 19 6 5 10 -21 16 -47 12 -5 0 -8 6 -8 14 0 8 5
15 10 15 6 0 10 -4 10 -10 0 -18 24 -10 48 14 l23 25 -23 20 c-12 12 -30 21
-39 21 -10 0 -19 9 -22 23 -3 20 -4 20 -12 3 -5 -12 -3 -21 6 -27 10 -6 11
-11 2 -20 -8 -8 -13 -6 -18 10 -6 21 -16 26 -28 15 -3 -3 4 -16 17 -28 12 -11
22 -26 21 -33 0 -15 -15 -30 -15 -15 0 6 -16 27 -35 46 -19 20 -35 40 -35 46
0 5 -4 10 -10 10 -5 0 -10 9 -10 20 0 11 -5 20 -11 20 -5 0 -7 5 -4 10 3 6 -1
13 -9 16 -9 3 -16 15 -16 25 0 10 -4 19 -10 19 -5 0 -10 10 -10 23 0 16 -3 18
-9 9 -6 -11 -10 -10 -15 4 -3 9 -9 14 -13 11 -3 -4 -12 -2 -20 4 -25 21 -13
-2 15 -27 21 -19 22 -22 5 -12 -18 10 -25 10 -35 0 -6 -6 -22 -12 -35 -12 -22
0 -48 -31 -36 -44 3 -3 15 -6 26 -6 13 0 17 5 13 15 -4 10 1 15 14 15 11 0 20
5 20 10 0 6 7 10 15 10 8 0 15 -4 15 -10 0 -5 -4 -10 -10 -10 -5 0 -11 -19
-11 -42 l-2 -43 -7 40 c-4 22 -8 30 -9 18 0 -13 -5 -23 -11 -23 -5 0 -10 -7
-10 -15 0 -8 -7 -15 -15 -15 -9 0 -18 7 -21 15 -4 8 -10 15 -16 15 -5 0 -6 -4
-3 -10 3 -5 -1 -10 -9 -10 -9 0 -16 -4 -16 -10 0 -5 5 -10 10 -10 6 0 10 -5
10 -10 0 -6 -10 -8 -22 -5 -29 6 -63 -19 -54 -40 3 -9 2 -13 -4 -10 -6 3 -10
15 -10 26 0 10 -4 19 -10 19 -5 0 -10 5 -10 11 0 5 5 7 10 4 11 -7 52 16 80
44 13 13 12 14 -10 8 -14 -4 -37 -7 -52 -7 -31 0 -38 -16 -10 -24 9 -2 1 -5
-18 -4 -64 0 -72 -1 -63 -14 11 -19 12 -38 2 -38 -5 0 -9 -7 -9 -15 0 -8 -4
-15 -9 -15 -5 0 -7 -9 -4 -20 3 -13 0 -20 -9 -20 -7 0 -14 -9 -15 -20 -1 -11
1 -20 5 -20 4 0 14 9 22 20 14 20 47 29 35 10 -3 -5 -1 -10 5 -10 12 0 40 -24
40 -34 0 -3 -13 -6 -29 -6 -21 0 -32 -6 -36 -20 -5 -14 -15 -20 -38 -20 -24 0
-28 -3 -17 -10 11 -7 0 -10 -38 -10 -33 0 -51 -4 -47 -10 3 -5 -1 -10 -9 -10
-9 0 -16 -9 -16 -20 0 -16 -7 -20 -35 -20 -19 0 -35 -5 -35 -11 0 -8 15 -10
48 -6 26 3 41 3 35 0 -7 -2 -13 -11 -13 -19 0 -9 -4 -13 -8 -10 -5 3 -15 -4
-22 -15 -8 -10 -20 -19 -28 -19 -18 0 -42 25 -42 44 0 10 -9 16 -26 16 -14 0
-23 -4 -19 -10 3 -5 -1 -10 -9 -10 -9 0 -16 -8 -16 -19 0 -18 -25 -35 -41 -28
-3 1 -14 -4 -23 -12 -12 -10 -20 -11 -24 -4 -4 6 -25 15 -47 19 -22 4 -34 9
-27 11 15 6 16 33 1 33 -5 0 -8 4 -4 9 3 6 -16 12 -42 14 -38 3 -43 5 -26 11
13 5 20 12 17 17 -3 5 4 9 16 9 12 0 18 5 15 10 -4 6 8 10 30 10 22 0 34 4 30
10 -4 6 5 10 20 10 19 0 25 5 23 17 -2 11 6 19 22 24 14 4 18 8 10 8 -13 1
-13 3 -1 10 8 5 11 16 8 25 -4 10 -1 16 8 16 8 0 15 5 15 10 0 6 9 10 20 10
11 0 20 7 20 16 0 11 -6 14 -22 9 -13 -4 -27 -11 -32 -16 -6 -5 -23 -9 -38 -9
-15 0 -28 -5 -28 -11 0 -8 -18 -10 -53 -7 -49 4 -52 3 -53 -19 -1 -16 4 -23
16 -23 11 0 22 -4 25 -10 4 -6 -6 -10 -24 -10 -16 0 -33 5 -36 10 -3 6 -17 10
-31 10 -27 0 -61 26 -49 38 4 4 10 1 12 -5 5 -15 83 -18 83 -4 0 5 -12 14 -27
19 -26 10 -25 11 17 12 35 1 40 3 25 10 -16 7 -13 9 16 9 20 1 56 8 79 16 23
8 46 12 52 9 5 -3 17 4 28 16 11 13 31 22 49 22 17 1 31 6 31 13 0 18 -29 15
-105 -12 -38 -13 -90 -25 -115 -25 -25 0 -53 -5 -62 -10 -12 -5 -18 -5 -18 2
0 5 7 10 15 10 18 0 19 12 3 28 -9 9 -7 12 9 12 12 0 25 -4 28 -10 7 -11 58
-14 68 -4 13 13 -7 34 -37 39 -42 8 -46 45 -4 45 15 0 30 5 33 10 3 6 17 10
31 10 15 0 24 6 24 16 0 10 5 14 16 10 9 -3 12 -2 9 5 -4 6 4 8 22 4 25 -5 26
-4 6 4 -37 17 -26 24 25 17 36 -5 43 -4 30 4 -25 15 -22 30 5 29 21 0 21 -1 2
-9 -14 -6 2 -8 50 -8 52 0 62 2 40 8 -16 4 -23 8 -15 9 13 1 13 2 0 12 -11 8
-5 9 24 5 35 -5 37 -4 20 9 -18 13 -16 14 16 14 19 0 29 -3 23 -6 -18 -7 -16
-33 2 -33 8 0 15 5 15 10 0 6 16 10 36 10 32 0 34 1 20 16 -9 8 -16 16 -16 17
0 9 140 -1 157 -11 13 -7 34 -10 48 -6 34 8 32 -12 -2 -24 l-28 -10 28 -1 c15
-1 27 4 27 9 0 6 5 10 10 10 6 0 10 -8 10 -17 1 -17 1 -17 11 0 5 9 22 17 36
17 21 0 24 3 15 12 -10 10 -17 10 -32 0 -23 -14 -33 -16 -26 -3 6 10 -26 21
-63 21 -16 0 -21 4 -18 14 6 15 -22 16 -100 1 -30 -5 -43 -4 -43 4 0 7 -23 11
-64 11 -36 0 -68 5 -71 10 -3 6 -20 10 -36 10 -19 0 -28 4 -24 11 4 6 14 7 24
3 9 -3 48 -10 86 -15 39 -5 87 -11 108 -15 24 -4 37 -2 37 5 0 6 -6 12 -12 12
-7 1 1 5 17 9 l30 8 -36 1 c-19 0 -40 -4 -46 -10 -7 -7 -21 -7 -44 -1 l-34 10
38 1 c20 1 37 6 37 11 0 6 17 10 38 11 20 0 30 3 22 6 -11 5 62 31 93 33 19 1
4 -19 -19 -24 -14 -4 -24 -12 -21 -19 2 -7 -3 -17 -12 -24 -13 -10 -10 -12 21
-13 20 0 40 5 43 10 3 6 23 10 43 11 30 0 33 2 17 9 -16 7 -13 9 16 9 19 1 40
-4 47 -11 7 -7 12 -8 12 -4 0 5 -8 15 -17 22 -17 12 -17 13 -1 14 9 0 20 -4
23 -10 3 -5 19 -10 36 -10 16 0 29 5 29 10 0 6 23 10 51 10 28 0 48 4 44 9 -3
5 5 11 17 13 22 3 22 4 -7 20 l-30 17 52 1 c32 0 53 -5 55 -12z m1282 -60 c5
-10 7 -10 12 0 3 6 10 12 15 12 6 0 7 -4 4 -10 -3 -5 2 -10 12 -10 10 0 25 -9
33 -20 13 -17 26 -20 103 -20 56 0 86 -4 82 -10 -3 -5 3 -10 14 -10 12 0 21
-4 21 -10 0 -6 27 -10 60 -10 33 0 60 -4 60 -10 0 -5 17 -10 38 -11 30 0 33
-2 17 -9 -17 -7 -17 -9 -2 -9 9 -1 17 -6 17 -12 0 -6 10 -9 23 -7 16 2 21 9
19 23 -2 16 -1 17 7 5 7 -10 5 -20 -6 -32 -15 -17 -15 -18 0 -18 10 0 17 -7
17 -16 0 -21 39 -55 54 -48 6 3 1 -3 -11 -14 -13 -11 -23 -27 -23 -36 0 -9 -4
-16 -10 -16 -5 0 -10 -7 -10 -16 0 -8 5 -12 10 -9 6 3 10 -3 10 -14 0 -12 -4
-21 -10 -21 -5 0 -10 -5 -10 -11 0 -5 5 -7 10 -4 6 4 10 -9 10 -32 0 -27 -3
-34 -9 -24 -7 11 -11 4 -13 -25 -2 -21 -5 -2 -5 44 -2 142 -13 104 -15 -49 -1
-108 -3 -129 -8 -84 l-7 60 -3 -60 -3 -60 -7 50 -7 50 -3 -65 c-1 -36 -2 -78
-2 -95 l2 -30 -15 25 c-14 24 -14 23 -14 -30 1 -42 3 -49 9 -30 6 18 8 4 8
-45 0 -58 -1 -64 -8 -35 -5 19 -6 38 -4 42 3 5 1 8 -5 8 -5 0 -12 -8 -14 -17
-3 -10 -5 -5 -6 12 -1 23 -3 27 -11 15 -8 -13 -10 -13 -10 2 0 11 -6 15 -20
11 -17 -5 -18 -8 -8 -21 10 -12 10 -14 1 -8 -9 5 -13 0 -13 -13 0 -28 -20 -27
-21 2 l-2 22 -4 -22 c-2 -13 -11 -23 -19 -23 -8 0 -14 -6 -12 -14 2 -8 -6 -22
-17 -31 -11 -9 -15 -14 -9 -11 7 3 15 -1 18 -10 5 -12 14 -15 36 -10 25 4 30
2 30 -13 0 -10 -9 -21 -20 -24 -14 -4 -20 -14 -21 -34 0 -15 -3 -22 -6 -15 -2
6 -9 12 -14 12 -6 0 -8 -4 -5 -9 3 -5 -5 -12 -18 -15 -19 -5 -22 -11 -18 -31
3 -17 0 -25 -9 -25 -12 0 -12 -2 0 -9 11 -7 9 -10 -8 -16 -11 -3 -25 -3 -31 0
-14 9 -13 -8 2 -23 9 -9 5 -12 -18 -12 -22 0 -26 -3 -14 -10 13 -9 13 -10 0
-11 -8 -1 -23 0 -34 1 -22 2 -56 -32 -56 -56 0 -25 -10 -11 -16 22 -7 39 -11
41 -25 10 -10 -22 -18 -26 -53 -25 -36 1 -38 2 -16 10 l25 8 -25 -2 c-20 -2
-26 -10 -36 -52 -12 -47 -13 -47 -8 -8 5 38 4 41 -15 36 -12 -3 -22 -13 -23
-22 -1 -9 -2 -23 -4 -31 -1 -8 -2 -23 -3 -32 -1 -22 -17 -23 -55 -3 -35 19
-36 19 -36 -2 0 -9 -3 -13 -7 -9 -4 3 -12 -6 -19 -21 l-12 -28 -1 38 c-1 29
-5 37 -20 37 -10 0 -22 7 -25 16 -3 8 -2 12 4 9 6 -4 10 5 10 20 0 15 5 35 10
46 8 13 7 19 0 19 -6 0 -9 4 -6 9 3 5 16 7 28 4 14 -4 26 0 34 12 8 11 14 15
14 11 0 -5 7 -3 15 4 13 10 15 9 15 -9 0 -13 4 -19 11 -16 6 4 8 14 5 22 -5
12 -1 14 14 10 11 -3 18 -1 15 3 -3 5 -19 8 -36 8 -16 -1 -35 4 -41 10 -9 9
-8 12 6 12 25 0 46 24 45 52 -1 23 -1 23 -9 -2 -7 -22 -8 -21 -9 13 -1 32 2
37 22 37 18 0 19 -2 7 -10 -12 -7 -8 -10 15 -11 26 0 27 -2 10 -9 -18 -8 -17
-9 8 -9 37 -1 60 -25 54 -56 -4 -26 -2 -27 61 -28 12 0 22 -6 22 -13 0 -8 8
-14 18 -14 13 0 14 2 4 9 -7 4 -12 14 -10 22 2 10 -6 13 -27 12 -20 -1 -23 0
-7 4 12 2 22 9 22 14 0 5 14 9 31 9 17 0 28 4 24 10 -3 6 1 10 9 10 11 0 13 8
9 35 -4 23 -2 35 6 35 6 0 11 7 11 16 0 9 -5 12 -12 8 -7 -5 -8 -3 -4 5 12 18
-24 52 -46 45 -10 -3 -18 -1 -18 5 0 6 -7 11 -15 11 -8 0 -15 5 -15 10 0 6 -9
10 -20 10 -11 0 -20 5 -20 12 0 6 -7 3 -15 -8 -13 -18 -14 -18 -8 5 4 17 3 22
-5 17 -7 -4 -12 -1 -12 8 0 9 -6 15 -12 14 -7 -2 -12 2 -11 9 2 7 -6 10 -17 8
-14 -3 -20 2 -20 13 0 15 -2 15 -10 2 -6 -9 -10 -10 -10 -3 0 22 -40 10 -40
-12 0 -15 -3 -16 -9 -7 -6 10 -11 4 -17 -20 -8 -33 -8 -32 -12 16 -2 33 1 52
10 57 10 7 10 9 -2 9 -13 0 -13 1 0 10 22 14 100 0 124 -22 l21 -19 3 93 c2
63 -1 94 -9 97 -8 2 -7 6 2 12 10 6 8 9 -8 9 -16 0 -23 6 -23 20 0 11 5 20 10
20 6 0 10 6 10 14 0 9 7 13 20 11 17 -3 18 -1 8 15 -9 14 -14 16 -20 7 -5 -8
-8 -6 -8 6 0 10 -4 16 -8 13 -5 -3 -15 4 -22 15 -8 10 -25 19 -38 19 -34 0
-65 19 -58 36 3 8 0 14 -7 15 -9 0 -9 2 1 6 6 2 12 18 12 34 0 16 5 29 10 29
6 0 10 9 10 20 0 24 13 26 33 5 8 -8 17 -11 21 -8 3 4 6 0 6 -7 0 -7 3 -11 6
-7 8 8 34 -18 34 -35 0 -10 3 -9 10 2 8 13 10 12 10 -3 0 -10 5 -15 10 -12 6
3 10 1 10 -5 0 -6 5 -8 10 -5 6 3 10 -1 10 -9 0 -9 5 -16 11 -16 5 0 8 4 5 8
-3 4 8 13 25 19 26 10 29 9 29 -8 0 -11 5 -17 10 -14 6 4 10 -7 10 -25 0 -18
4 -29 10 -25 6 3 10 -3 10 -14 0 -12 6 -20 13 -19 6 2 11 -3 9 -9 -1 -7 2 -13
8 -13 6 0 10 -9 10 -20 0 -22 25 -28 33 -7 3 6 6 2 6 -10 1 -14 -5 -23 -13
-23 -9 0 -12 -7 -9 -20 9 -36 69 -18 68 20 0 8 2 17 5 20 10 9 40 111 40 136
0 14 -6 27 -14 30 -23 9 -26 30 -8 50 19 21 22 45 7 56 -6 5 -5 8 3 8 7 0 10
5 7 10 -3 6 -1 10 5 10 12 0 40 24 40 34 0 3 -16 6 -36 6 -21 0 -33 -4 -29
-10 4 -6 -6 -10 -22 -10 -24 1 -25 2 -10 11 26 15 20 29 -13 29 -16 0 -30 5
-30 10 0 6 -5 10 -12 10 -7 0 -5 -7 5 -18 11 -12 13 -22 6 -35 -7 -12 -7 -17
1 -17 7 0 5 -6 -4 -15 -8 -8 -23 -15 -33 -15 -15 0 -16 -2 -3 -10 12 -8 12
-10 -5 -10 -11 0 -29 -7 -39 -15 -11 -8 -37 -15 -58 -15 -21 0 -38 -4 -38 -10
0 -14 -29 -12 -44 3 -8 6 -23 19 -35 27 -26 18 -27 30 -1 30 12 0 20 -7 20
-17 0 -9 3 -13 6 -10 4 4 15 -2 24 -13 17 -19 17 -19 39 1 15 15 30 19 47 15
28 -7 30 -3 9 18 -13 12 -14 20 -5 37 7 11 9 30 7 41 -4 14 -2 18 9 14 8 -3
14 -1 14 4 0 6 7 10 16 10 8 0 12 5 9 10 -3 6 -15 10 -26 10 -10 0 -19 5 -19
10 0 6 -7 10 -16 10 -8 0 -12 -4 -9 -10 3 -6 -4 -10 -17 -10 -18 0 -20 2 -8
10 11 7 5 10 -22 10 -21 0 -38 5 -38 10 0 6 -9 10 -20 10 -13 0 -20 7 -20 20
0 11 7 20 16 20 8 0 12 5 9 10 -4 6 6 10 24 10 16 0 32 -6 35 -12z m-254 -18
c-11 -7 -4 -10 28 -10 23 0 42 -4 42 -10 0 -5 -7 -10 -15 -10 -8 0 -15 -4 -15
-10 0 -5 19 -10 43 -10 31 0 38 3 27 10 -13 8 -12 10 3 10 9 0 17 -7 17 -15 0
-9 6 -12 18 -9 11 4 13 3 5 -3 -8 -6 -9 -13 -2 -23 8 -11 12 -12 16 -2 5 14
23 16 23 3 0 -17 -33 -21 -50 -6 -9 8 -32 14 -51 13 l-34 -1 33 -4 c18 -3 36
-11 39 -19 3 -8 14 -14 24 -14 26 0 25 -36 -1 -43 -15 -4 -20 0 -20 15 0 33
-25 48 -80 48 -49 0 -51 1 -34 18 17 16 17 17 -7 21 l-24 4 25 8 c21 6 17 7
-18 8 -27 1 -49 -5 -59 -14 -19 -19 -13 -27 21 -29 14 0 26 -4 26 -8 0 -5 -41
-8 -91 -8 -89 0 -119 -10 -119 -39 0 -15 -12 -14 -37 4 -20 14 -22 14 -20 -5
1 -18 8 -20 65 -20 39 0 61 4 57 10 -4 6 18 10 59 10 53 0 64 3 60 14 -4 11 0
13 15 9 11 -3 18 -9 15 -14 -3 -5 7 -9 21 -9 15 0 24 -4 20 -10 -3 -5 3 -10
13 -10 11 0 23 -7 26 -16 3 -8 11 -12 17 -8 7 4 10 1 7 -7 -3 -8 -13 -13 -24
-12 -32 4 -86 -58 -64 -72 12 -8 1 -30 -36 -69 -21 -23 -24 -30 -13 -37 12 -8
12 -10 -1 -18 -12 -8 -11 -11 5 -17 11 -5 20 -3 23 4 2 8 26 12 64 12 61 0 88
-13 88 -44 0 -9 5 -16 10 -16 6 0 10 -4 10 -10 0 -5 -9 -10 -20 -10 -13 0 -20
7 -20 20 0 11 -4 20 -10 20 -5 0 -10 -4 -10 -10 0 -5 -18 -10 -41 -10 -22 0
-38 -3 -36 -7 3 -5 -1 -14 -9 -21 -8 -7 -14 -8 -14 -2 0 5 -5 10 -10 10 -6 0
-20 9 -32 20 -12 11 -30 20 -40 20 -10 0 -18 5 -18 10 0 6 -18 10 -40 10 -38
0 -40 -1 -40 -32 0 -25 -3 -29 -10 -18 -7 11 -10 -4 -10 -50 0 -46 3 -61 10
-50 8 12 10 10 10 -8 0 -13 -4 -20 -10 -17 -6 4 -10 -5 -10 -19 0 -14 5 -26
10 -26 6 0 10 -5 10 -11 0 -5 -4 -7 -10 -4 -5 3 -10 -1 -10 -9 0 -9 9 -16 20
-16 11 0 20 -4 20 -9 0 -5 9 -7 20 -4 11 3 26 0 34 -6 11 -9 15 -9 19 1 4 8 8
9 14 3 4 -6 22 -17 38 -25 29 -15 64 -48 65 -62 0 -4 -15 -8 -32 -10 -23 -2
-36 -10 -43 -25 -18 -43 -42 -35 -36 13 1 6 -10 17 -24 24 -20 11 -22 16 -14
32 16 30 3 33 -23 5 -21 -22 -26 -24 -43 -11 -10 8 -13 14 -7 14 7 0 13 -1 15
-2 1 -2 10 4 19 12 9 9 12 17 6 21 -14 9 -48 -1 -48 -15 0 -6 -5 -4 -10 4 -6
10 -10 11 -10 3 0 -7 -4 -13 -10 -13 -5 0 -10 6 -10 14 0 9 -7 12 -20 9 -11
-3 -20 -10 -20 -15 0 -5 -4 -7 -9 -3 -5 3 -19 -7 -30 -21 -15 -19 -21 -22 -21
-10 0 9 5 16 10 16 6 0 10 5 10 11 0 5 -4 8 -9 5 -5 -3 -11 3 -14 14 -3 11
-12 20 -21 20 -9 0 -16 7 -16 15 0 9 -9 15 -22 15 -19 0 -20 2 -8 10 12 8 11
10 -7 10 -24 0 -33 20 -10 20 7 1 4 7 -7 15 -10 8 -24 12 -30 9 -6 -3 -2 2 9
12 20 16 20 16 -3 11 -12 -3 -20 -1 -16 4 3 5 24 9 48 9 23 0 47 5 54 12 9 9
12 9 12 0 0 -7 -4 -12 -10 -12 -5 0 -10 -8 -10 -17 0 -13 -3 -14 -12 -5 -7 7
-16 12 -22 12 -5 0 1 -8 12 -19 12 -10 22 -26 22 -35 0 -10 5 -14 10 -11 6 3
10 -1 10 -9 0 -10 9 -16 21 -16 16 0 20 5 16 20 -4 16 0 20 19 20 13 0 24 6
24 13 0 8 4 7 10 -3 7 -10 10 11 10 68 0 48 4 82 10 82 6 0 10 11 10 24 0 13
6 27 13 29 6 3 2 6 -10 6 -13 1 -23 -3 -23 -7 0 -4 -9 -8 -20 -9 -11 -1 -20 2
-20 8 0 5 -9 9 -20 9 -11 0 -20 -4 -20 -10 0 -5 -7 -10 -15 -10 -8 0 -15 -4
-15 -10 0 -5 -7 -10 -15 -10 -8 0 -15 5 -15 10 0 6 -19 10 -42 9 -24 0 -37 -3
-30 -6 10 -4 10 -8 1 -19 -6 -8 -17 -14 -23 -14 -6 0 -4 5 4 10 12 8 11 10 -7
10 -12 0 -24 -6 -26 -12 -4 -8 -8 -4 -12 10 -7 22 -45 32 -45 12 0 -5 -4 -10
-8 -10 -4 0 -9 18 -10 40 -2 34 0 40 21 46 18 4 23 11 20 25 -3 10 -1 19 5 19
6 0 17 12 24 27 7 15 23 32 35 38 15 8 19 15 13 25 -12 19 -1 40 22 40 10 0
16 5 13 10 -11 18 6 50 26 50 14 0 19 7 19 30 0 28 2 30 38 29 30 0 33 -2 17
-9 -19 -8 -19 -9 3 -9 12 -1 22 4 22 9 0 6 9 10 20 10 11 0 20 -4 20 -10 0 -5
9 -10 20 -10 16 0 20 7 20 30 l0 30 65 0 c37 0 65 4 65 10 0 6 29 10 68 10 47
0 63 -3 52 -10z m-1470 -520 l-25 -8 28 -1 c15 -1 27 -5 27 -11 0 -15 28 -12
56 6 21 14 23 14 19 2 -4 -9 -21 -20 -38 -26 -30 -9 -28 -10 26 -11 41 -1 59
-5 63 -16 7 -17 -25 -53 -34 -39 -10 13 -52 17 -52 5 0 -13 48 -61 60 -61 6 0
10 -10 10 -22 0 -19 2 -20 10 -8 8 13 10 12 10 -3 0 -10 5 -15 10 -12 6 3 10
-3 10 -14 0 -11 -9 -22 -20 -26 -11 -3 -20 -10 -20 -15 0 -4 -12 -11 -27 -15
-34 -8 -68 -41 -50 -48 9 -4 9 -7 0 -18 -10 -9 -13 -10 -13 -1 0 7 -6 12 -14
12 -9 0 -12 -7 -9 -20 3 -13 14 -20 29 -20 20 0 24 -5 24 -32 0 -25 -3 -29
-12 -20 -7 7 -32 12 -57 12 -34 0 -42 3 -31 10 11 7 -2 10 -45 11 -33 1 -62 1
-65 1 -3 0 -7 12 -8 28 -2 24 2 29 29 35 37 8 32 16 -15 20 -23 2 -36 -1 -40
-11 -3 -8 -12 -14 -21 -14 -8 0 -15 -9 -15 -20 0 -13 7 -20 20 -20 22 0 24 -5
20 -72 l-2 -48 107 0 c68 0 104 4 100 10 -3 6 4 10 17 10 18 0 20 -2 8 -10
-11 -7 -6 -10 20 -10 26 0 31 -3 20 -10 -11 -7 -2 -9 30 -9 41 1 42 2 15 9
l-30 8 28 1 c21 1 27 6 27 24 0 18 2 19 10 7 6 -10 10 -11 10 -2 0 6 9 12 20
12 12 0 20 7 20 16 0 21 24 44 47 45 10 0 13 3 6 6 -7 2 -13 19 -13 36 0 24 3
28 10 17 7 -11 10 -7 10 18 0 17 5 32 10 32 6 0 10 -6 10 -13 0 -7 9 -19 20
-27 11 -8 20 -20 20 -27 0 -6 8 -17 18 -22 9 -6 13 -11 9 -11 -5 0 -1 -7 7
-16 9 -8 14 -20 11 -25 -4 -5 1 -9 10 -9 9 0 13 -4 10 -10 -3 -5 1 -10 10 -10
9 0 13 -4 10 -10 -3 -5 0 -10 8 -10 10 0 14 -9 13 -30 -1 -16 2 -30 7 -30 8 0
39 -27 36 -32 0 -2 2 -20 6 -41 5 -27 10 -35 16 -25 6 8 9 0 9 -25 0 -23 4
-36 10 -32 6 3 10 2 10 -3 0 -5 11 -14 25 -20 19 -9 25 -9 26 1 1 6 5 1 9 -13
7 -23 8 -23 9 -3 1 12 5 24 9 27 4 2 6 -11 4 -31 -3 -25 -1 -34 7 -29 7 5 11
-4 12 -26 0 -30 1 -31 9 -10 13 32 16 28 13 -20 -2 -33 -1 -38 6 -23 9 18 10
17 10 -7 1 -16 6 -28 11 -28 6 0 10 -13 10 -30 0 -16 5 -30 10 -30 6 0 10 -13
10 -30 0 -16 5 -30 10 -30 6 0 10 -10 11 -22 0 -22 1 -22 9 -3 7 15 9 10 9
-22 1 -37 -2 -43 -20 -43 -11 0 -17 5 -14 10 4 6 11 8 16 5 5 -3 6 1 3 9 -3 9
-14 16 -23 16 -14 0 -14 -2 -1 -10 13 -8 12 -10 -2 -10 -10 0 -18 -4 -18 -10
0 -5 -11 -10 -25 -10 -14 0 -25 -4 -25 -10 0 -5 -10 -10 -22 -10 -21 -1 -22
-2 -5 -14 18 -14 71 -10 61 5 -3 5 4 9 15 9 12 0 21 -5 21 -10 0 -18 -43 -28
-118 -26 -51 2 -76 -2 -84 -11 -9 -11 -13 -12 -19 -1 -13 19 -11 28 6 28 8 0
15 5 15 10 0 13 -17 13 -25 0 -4 -6 -11 -8 -16 -5 -5 3 -6 -1 -3 -9 5 -13 -1
-16 -27 -16 -32 1 -33 1 -15 15 19 14 19 15 -8 15 -22 0 -26 -4 -21 -19 7 -23
-16 -44 -39 -35 -17 7 -57 -9 -87 -34 -14 -11 -17 -10 -23 4 -4 9 -12 14 -21
10 -13 -4 -13 -2 -5 14 15 29 12 37 -6 12 -9 -13 -25 -22 -42 -22 -21 0 -24 2
-12 10 9 6 10 10 3 10 -6 0 -13 10 -16 23 -3 21 -4 21 -12 2 -5 -11 -16 -25
-24 -32 -19 -15 -95 -17 -86 -3 7 12 -22 26 -33 16 -3 -4 -1 -11 6 -15 10 -6
9 -11 -3 -21 -15 -13 -17 -11 -15 15 3 52 -18 93 -34 66 -3 -5 -17 -8 -31 -8
-14 0 -34 -8 -44 -17 -9 -9 -27 -16 -38 -16 -29 0 -53 -10 -53 -22 0 -7 15 -8
38 -5 31 5 34 4 17 -6 -11 -6 -53 -11 -92 -11 -53 0 -73 -4 -73 -13 0 -8 -14
-13 -39 -13 -22 0 -41 -5 -44 -12 -3 -10 -7 -10 -17 -1 -10 9 -6 15 19 27 17
9 31 18 31 20 0 2 -14 19 -30 37 -28 31 -31 32 -41 16 -8 -14 -14 -16 -25 -6
-16 13 -64 -2 -90 -29 -11 -11 -18 -11 -28 -3 -11 9 -16 9 -21 0 -6 -8 -10 -7
-17 5 -5 9 -20 16 -33 16 -13 0 -35 4 -50 10 -17 7 -24 7 -20 0 12 -19 -23
-40 -65 -40 -25 0 -39 4 -35 10 4 6 -12 10 -42 10 -35 0 -44 3 -33 10 11 7 5
10 -25 10 -26 0 -35 3 -27 9 9 5 1 10 -26 15 -34 5 -39 9 -35 26 5 20 1 23
-49 34 -16 4 -28 13 -28 21 0 13 -11 19 -31 17 -4 -1 -4 9 -1 21 5 19 3 20
-11 9 -20 -17 -89 -11 -95 8 -3 9 1 11 12 7 14 -6 16 2 16 58 0 35 5 67 10 70
6 3 10 -4 10 -17 0 -18 2 -20 10 -8 5 8 10 28 10 43 0 16 4 26 10 22 19 -12
10 11 -10 25 -11 8 -20 22 -20 32 0 10 -5 18 -11 18 -6 0 -9 -9 -6 -20 3 -11
2 -20 -1 -20 -21 1 -27 20 -24 70 3 40 7 50 13 35 6 -16 8 -13 8 14 1 29 -1
32 -14 21 -8 -7 -15 -19 -15 -27 0 -8 -4 -11 -10 -8 -5 3 -10 -3 -10 -14 0
-11 -4 -23 -10 -26 -5 -3 -10 -18 -10 -33 0 -15 -5 -34 -10 -42 -8 -12 -10 -9
-10 13 0 16 -4 26 -10 22 -6 -4 -10 12 -10 39 0 25 -4 46 -10 46 -5 0 -10 15
-9 33 0 27 2 29 9 12 7 -17 9 -16 10 10 1 17 4 24 7 18 2 -7 9 -13 14 -13 4 0
5 7 2 17 -4 10 -2 14 5 9 6 -3 22 5 36 19 14 14 37 25 53 26 25 0 26 1 8 9
-17 7 -15 9 13 9 17 1 32 -3 32 -9 0 -5 7 -10 16 -10 8 0 12 5 9 10 -3 6 1 10
10 10 9 0 13 5 10 10 -4 6 5 10 20 10 15 0 24 4 20 10 -3 6 1 10 10 10 9 0 13
5 10 10 -3 6 0 10 7 10 8 0 20 9 28 20 8 11 20 20 28 20 7 0 10 5 7 10 -3 6 3
10 14 10 17 0 21 6 21 30 0 24 4 30 21 30 11 0 17 5 14 10 -3 6 1 10 9 10 9 0
16 6 16 13 0 8 4 7 10 -3 7 -12 10 -8 10 15 0 23 3 27 10 15 8 -12 10 -10 10
10 0 18 3 21 12 12 14 -14 38 2 38 25 0 8 5 11 10 8 6 -4 10 7 10 25 0 18 -4
29 -10 25 -5 -3 -10 -1 -10 6 0 7 10 9 30 6 22 -5 30 -3 30 8 0 8 -4 15 -10
15 -5 0 -10 8 -10 18 0 14 -2 15 -10 2 -8 -13 -10 -12 -10 3 0 26 46 22 75 -8
24 -24 35 -52 15 -40 -5 3 -10 -3 -10 -14 0 -14 -5 -19 -15 -15 -8 4 -21 1
-29 -5 -7 -6 -15 -9 -17 -7 -2 3 -2 -18 -1 -45 2 -28 0 -49 -6 -49 -6 0 -8 10
-6 23 2 12 2 16 -2 9 -3 -6 -10 -10 -15 -6 -5 3 -9 -8 -9 -25 0 -21 6 -32 20
-36 11 -3 20 -12 20 -18 0 -7 4 -6 10 3 6 10 10 11 10 3 0 -20 17 -15 23 7 5
20 37 29 37 10 0 -5 18 -10 40 -10 22 0 40 -4 40 -10 0 -5 20 -10 45 -10 25 0
45 -4 45 -10 0 -17 35 -11 50 9 7 11 17 18 22 15 4 -3 8 2 8 10 0 9 5 16 10
16 6 0 10 10 11 23 0 21 1 21 9 2 6 -16 10 -8 16 35 7 50 9 52 15 25 6 -29 7
-28 9 10 1 32 3 36 10 20 7 -17 9 -16 10 10 1 26 3 27 10 10 7 -17 9 -18 9 -2
1 11 12 20 32 24 22 4 27 8 17 14 -9 6 -7 9 10 9 15 0 22 6 22 20 0 15 7 20
28 21 24 0 25 1 7 9 -14 6 6 9 60 9 53 1 75 4 65 10 -8 6 -18 7 -22 5 -4 -3
-8 2 -8 10 0 9 5 16 11 16 5 0 7 5 3 12 -5 7 -2 9 9 5 9 -3 18 0 21 9 3 8 16
14 28 13 22 -1 22 -1 -2 -9z m865 -60 c-17 -7 -17 -9 -2 -9 9 -1 17 -5 17 -11
0 -5 20 -10 45 -10 25 0 45 -2 45 -4 0 -3 -4 -16 -10 -30 -6 -16 -6 -27 1 -31
12 -8 8 -75 -5 -75 -5 0 -2 -8 7 -18 10 -10 17 -26 17 -35 0 -9 6 -17 13 -18
8 0 8 -2 -2 -6 -11 -5 -11 -7 0 -14 10 -6 11 -9 2 -9 -7 0 -13 -7 -13 -15 0
-8 5 -15 11 -15 5 0 7 5 4 10 -3 6 -1 10 6 10 6 0 9 -8 6 -20 -4 -17 -2 -20
16 -16 12 3 16 3 10 0 -22 -10 -14 -34 10 -34 18 0 19 -2 7 -10 -12 -8 -12
-10 -1 -10 9 0 12 -8 9 -25 -4 -19 -1 -25 12 -25 10 0 21 -7 24 -16 9 -23 7
-31 -3 -15 -5 7 -19 14 -32 15 -16 1 -24 7 -23 18 1 10 -3 16 -10 15 -6 -1
-10 6 -8 15 1 10 -6 23 -18 30 -11 7 -20 21 -20 30 0 11 -8 18 -20 18 -23 0
-60 33 -60 55 0 8 -13 28 -30 43 -19 19 -30 39 -30 57 0 17 -6 28 -18 32 -19
5 -47 41 -38 50 3 3 12 0 21 -7 13 -11 15 -9 16 11 1 13 1 27 0 32 0 4 4 7 9
7 6 0 10 9 10 20 0 14 6 20 23 19 21 0 21 -1 2 -9z m335 -480 c0 -5 9 -10 20
-10 11 0 20 -4 20 -9 0 -5 14 -11 30 -14 17 -4 30 -13 30 -21 0 -9 7 -12 18
-9 12 3 19 -1 19 -11 0 -8 -4 -13 -9 -10 -4 3 -8 0 -8 -5 0 -6 7 -11 15 -11 8
0 15 -4 15 -10 0 -5 7 -10 15 -10 16 0 20 -12 8 -23 -3 -4 -5 -34 -4 -67 3
-82 -22 -120 -81 -120 -35 0 -40 -2 -35 -20 3 -11 1 -20 -4 -20 -12 0 0 -28
14 -33 7 -2 4 -3 -5 -2 -13 2 -18 -4 -18 -20 0 -22 -17 -35 -46 -35 -9 0 -14
11 -13 33 0 28 1 29 9 11 11 -27 27 -38 35 -24 3 5 -1 10 -9 10 -9 0 -16 4
-16 10 0 5 6 7 14 4 7 -3 16 2 19 10 4 9 2 16 -4 16 -6 0 -7 5 -4 10 3 6 2 10
-4 10 -5 0 -12 -8 -14 -17 -3 -10 -6 -2 -7 17 -1 29 -3 32 -10 15 -8 -18 -9
-18 -9 -2 -1 10 -5 15 -11 12 -5 -3 -10 2 -10 11 0 10 -3 15 -6 11 -4 -3 -13
0 -20 8 -16 16 -19 95 -3 95 5 0 8 -4 5 -9 -3 -5 2 -15 11 -22 14 -12 17 -12
21 0 4 11 6 11 13 0 6 -11 9 -9 15 5 5 12 1 22 -10 28 -14 8 -16 18 -11 45 4
24 3 33 -4 28 -7 -4 -11 6 -12 27 -1 31 -1 32 -9 8 -6 -18 -8 -20 -9 -7 -1 10
-5 15 -11 12 -5 -3 -10 3 -10 14 0 12 -4 21 -10 21 -5 0 -10 11 -10 24 0 13
-6 27 -12 29 -7 3 5 5 27 6 31 0 36 -2 20 -9 l-20 -9 20 -1 c20 -1 20 -1 1
-15 -19 -15 -19 -15 2 -15 17 0 22 6 22 25 0 17 6 25 18 26 14 0 14 2 -3 9
-19 8 -19 9 3 9 12 1 22 -3 22 -9z m-3739 -17 l34 -8 -45 -6 c-30 -5 -19 -6
35 -4 44 1 69 1 55 -2 -14 -3 -31 -9 -37 -15 -7 -6 -55 -10 -107 -9 -59 1 -97
-3 -101 -9 -5 -8 10 -10 48 -7 31 3 71 2 91 -3 22 -5 43 -3 58 4 19 10 29 9
53 -4 17 -9 44 -22 60 -28 l30 -10 -28 -1 c-16 -1 -37 4 -48 9 -14 8 -25 7
-42 -5 -22 -15 -21 -15 9 -9 19 3 34 2 38 -5 5 -7 -2 -11 -18 -11 -15 0 -25
-5 -23 -12 1 -6 -8 -14 -20 -17 -15 -4 -20 -10 -14 -19 6 -11 15 -10 42 6 22
12 46 17 67 14 20 -2 32 0 32 7 0 6 9 11 19 11 11 0 26 6 34 14 9 9 19 11 28
5 9 -6 10 -9 2 -9 -7 0 -10 -7 -7 -17 5 -16 4 -16 -6 -3 -8 10 -13 11 -16 4
-3 -7 -14 -10 -24 -7 -23 6 -38 -23 -21 -40 18 -18 13 -37 -11 -36 -17 1 -19
2 -5 6 21 5 23 23 2 23 -8 0 -12 6 -9 14 4 11 -4 12 -45 3 -28 -5 -51 -14 -51
-18 0 -5 -13 -9 -28 -9 -15 0 -32 -4 -38 -10 -5 -5 -26 -10 -47 -12 -20 -1
-37 -6 -37 -11 0 -4 -10 -7 -22 -5 -13 2 -22 9 -20 16 1 6 -4 12 -12 12 -8 0
-17 6 -19 13 -3 7 -6 5 -6 -5 -1 -19 -24 -26 -87 -26 -35 1 -41 3 -37 19 6 23
4 22 38 5 24 -13 29 -12 46 5 10 10 19 26 19 34 0 8 6 15 13 15 19 0 42 -18
42 -32 0 -7 7 -13 15 -13 8 0 15 6 15 13 0 7 6 16 13 21 10 6 2 11 -25 16 -21
5 -42 7 -46 6 -5 -1 -6 3 -2 9 3 5 15 10 26 10 17 0 18 3 7 20 -7 11 -21 20
-30 20 -10 0 -27 9 -37 19 -10 10 -28 22 -40 26 -40 12 -21 21 37 18 33 -3 76
2 102 10 55 18 59 19 101 10z"/>
<path d="M6370 6580 c0 -11 -5 -20 -11 -20 -6 0 -9 -7 -5 -15 3 -10 -1 -15
-13 -15 -14 0 -17 6 -13 25 3 20 0 25 -16 25 -21 0 -46 -23 -35 -33 3 -4 -1
-7 -11 -7 -9 0 -14 5 -11 10 3 6 -4 10 -17 10 -17 0 -19 3 -9 9 11 7 11 9 0
13 -19 6 -49 -2 -49 -13 0 -5 7 -9 15 -9 8 0 15 -2 15 -4 0 -2 3 -12 7 -22 5
-13 3 -16 -10 -11 -12 5 -17 1 -17 -12 0 -11 7 -18 16 -17 9 0 18 -7 19 -16 2
-10 -3 -18 -11 -18 -9 0 -12 5 -9 10 4 6 -5 10 -19 10 -14 0 -26 -3 -26 -6 0
-13 30 -34 50 -34 12 0 19 -4 15 -9 -5 -9 176 -20 203 -13 20 7 14 42 -7 42
-11 0 -23 5 -26 10 -3 6 1 10 9 10 19 0 20 40 3 85 -14 35 -37 44 -37 15z"/>
<path d="M4430 6470 c0 -5 -6 -10 -14 -10 -19 0 -69 -52 -57 -60 6 -3 2 -12
-9 -20 -11 -8 -20 -22 -20 -31 0 -10 -5 -19 -11 -21 -16 -5 -18 -140 -1 -145
6 -3 12 -9 12 -14 0 -6 -6 -7 -12 -3 -10 6 -10 4 0 -7 6 -7 12 -26 12 -42 0
-16 7 -35 15 -43 8 -9 15 -23 15 -32 0 -10 -3 -13 -8 -7 -4 6 -24 10 -45 10
-27 0 -39 5 -43 17 -3 11 -16 18 -32 19 -15 1 -43 3 -62 5 -47 6 -80 -3 -80
-22 0 -8 -4 -12 -10 -9 -6 4 -10 -6 -10 -22 0 -19 -3 -24 -9 -14 -5 8 -11 9
-15 3 -8 -13 5 -21 38 -24 14 -1 26 -8 26 -15 0 -7 10 -13 23 -13 16 0 18 3 8
9 -9 6 -1 10 25 14 26 3 43 0 50 -9 15 -19 44 -18 44 2 0 11 6 14 22 8 22 -7
56 -34 42 -34 -4 0 2 -8 12 -17 20 -18 21 -53 3 -53 -5 0 -9 -9 -9 -20 0 -11
5 -20 11 -20 5 0 7 5 4 10 -4 6 9 10 32 11 30 0 34 2 18 9 -11 5 -14 9 -7 9
19 1 42 27 42 46 0 9 5 13 10 10 6 -4 10 7 10 24 0 17 5 31 10 31 6 0 10 18
10 40 0 42 10 50 32 26 11 -12 15 -12 31 1 10 10 17 12 17 5 0 -7 -4 -12 -10
-12 -5 0 -10 -9 -10 -20 0 -11 -7 -20 -15 -20 -8 0 -24 -9 -35 -20 -21 -21
-27 -35 -11 -26 5 4 12 0 14 -6 4 -8 6 -7 6 4 1 15 24 28 56 33 6 1 15 3 20 4
6 1 3 6 -5 12 -11 8 -12 12 -2 16 7 3 12 22 12 46 0 31 -3 38 -10 27 -8 -12
-10 -10 -10 10 0 20 -2 22 -10 10 -8 -12 -10 -10 -10 9 0 19 -3 21 -14 12 -11
-10 -15 -8 -19 6 -3 11 -5 6 -6 -12 -1 -23 -3 -27 -11 -15 -8 13 -10 13 -10
-2 0 -22 -37 -33 -56 -17 -12 10 -13 9 -8 -4 8 -21 -23 -54 -37 -40 -7 7 -5
15 5 26 9 9 16 22 16 31 0 8 5 18 10 21 6 3 10 15 10 26 0 11 4 18 9 14 5 -3
13 0 16 6 4 5 -2 13 -12 15 -15 4 -18 12 -15 35 2 16 9 29 14 29 6 0 7 -7 4
-16 -4 -12 -2 -15 9 -10 12 4 15 -2 15 -28 0 -29 3 -33 20 -29 13 4 20 14 20
30 0 13 -4 21 -10 18 -6 -4 -10 7 -10 24 0 24 -4 31 -20 31 -16 0 -20 7 -20
30 0 23 -4 30 -20 30 -13 0 -20 7 -20 20 0 14 7 20 23 20 18 0 19 2 7 10 -8 5
-10 10 -4 10 6 0 21 9 34 20 20 17 21 21 7 35 -18 17 -27 19 -27 5z"/>
<path d="M7710 5916 c4 -19 5 -37 2 -40 -3 -4 -1 -6 5 -6 5 0 10 -6 11 -12 0
-7 3 -25 6 -40 5 -21 3 -28 -9 -28 -9 0 -14 -4 -11 -8 3 -5 -10 -15 -29 -22
-26 -10 -35 -20 -35 -36 0 -12 -7 -29 -15 -38 -8 -8 -15 -24 -15 -35 0 -12 -4
-21 -10 -21 -5 0 -10 -11 -10 -25 0 -17 6 -25 17 -25 9 0 14 3 10 6 -3 3 5 18
19 32 13 15 24 30 24 34 0 8 30 46 66 84 12 13 19 25 16 28 -3 3 -2 6 3 6 4 0
15 -9 24 -19 9 -10 30 -21 46 -22 34 -5 64 -28 57 -46 -2 -7 1 -13 7 -13 6 0
11 -13 11 -30 0 -16 5 -30 10 -30 6 0 10 -5 10 -11 0 -15 26 -39 34 -32 3 4 6
2 6 -3 0 -5 -9 -15 -20 -22 -15 -9 -20 -23 -20 -52 0 -35 -3 -40 -22 -40 -19
0 -20 -2 -8 -10 12 -8 10 -10 -10 -10 -18 0 -21 -3 -11 -9 11 -7 11 -10 0 -15
-11 -5 -11 -7 -1 -12 6 -3 10 -10 6 -15 -3 -5 12 -9 33 -8 34 1 35 2 13 9 -21
7 -19 8 18 9 35 1 42 4 42 21 0 11 -4 20 -10 20 -5 0 -10 16 -10 36 0 21 4 33
10 29 6 -3 10 4 10 17 0 18 2 20 10 8 8 -12 10 -10 11 10 0 14 3 19 6 13 9
-23 35 15 30 44 -4 27 -4 27 -12 6 -11 -35 -25 -27 -25 15 0 25 3 33 9 23 6
-9 9 -1 8 25 0 21 -2 32 -4 23 -3 -11 -12 -15 -28 -11 -19 3 -25 11 -26 31 0
23 -1 24 -9 6 -7 -15 -9 -9 -9 25 -1 33 -4 41 -11 30 -8 -12 -10 -11 -10 8 0
12 -4 22 -10 22 -5 0 -10 14 -10 30 0 17 -5 30 -12 30 -9 0 -8 4 2 10 13 8 12
10 -3 10 -10 0 -15 5 -12 10 3 6 -4 10 -17 10 -18 0 -20 2 -8 10 12 8 9 10
-12 10 -16 0 -27 3 -27 8 5 27 -4 32 -55 32 l-54 0 8 -34z"/>
<path d="M4630 4990 c0 -22 -4 -40 -10 -40 -5 0 -10 -18 -10 -40 0 -22 -4 -40
-10 -40 -5 0 -10 -12 -10 -27 0 -22 -2 -25 -10 -13 -7 11 -10 5 -10 -23 0 -23
-4 -36 -10 -32 -5 3 -10 -1 -10 -9 0 -9 -4 -16 -10 -16 -5 0 -10 -12 -11 -27
0 -25 -1 -26 -9 -8 -7 17 -9 14 -9 -13 -1 -18 -5 -31 -10 -28 -5 4 -12 0 -14
-6 -4 -10 -6 -10 -6 0 -1 8 -11 3 -26 -12 -22 -22 -25 -34 -25 -96 0 -42 4
-70 11 -70 5 0 7 -4 4 -10 -3 -5 0 -10 7 -11 7 0 4 -4 -7 -9 -17 -7 -14 -9 15
-10 32 -2 33 -3 10 -10 -21 -7 -19 -8 18 -9 23 -1 42 -5 42 -11 0 -5 10 -10
23 -10 18 0 19 -2 7 -10 -10 -7 8 -10 60 -11 53 -1 68 -3 50 -9 l-25 -8 27 -1
c14 -1 28 -7 31 -13 3 -10 8 -10 16 -2 10 9 9 15 -3 26 -8 9 -12 18 -9 22 4 3
-1 6 -10 6 -9 0 -17 5 -17 10 0 6 -8 10 -17 10 -15 0 -16 2 -3 10 13 8 12 10
-4 10 -11 0 -17 3 -13 6 11 11 -21 34 -47 34 -16 0 -26 6 -26 15 0 8 -4 15
-10 15 -5 0 -10 12 -9 28 l1 27 8 -25 c6 -18 8 -20 9 -7 1 25 28 51 34 34 3
-7 6 -5 6 5 1 9 -3 20 -9 23 -5 3 -10 14 -9 23 0 14 2 13 9 -3 8 -18 9 -17 9
8 1 16 -3 26 -9 22 -6 -4 -10 6 -10 22 0 22 2 25 10 13 8 -12 10 -9 10 13 0
15 5 27 10 27 6 0 10 10 10 23 0 18 -2 19 -10 7 -8 -12 -10 -10 -10 8 0 13 4
20 10 17 6 -3 10 -1 10 6 0 6 10 20 22 30 19 17 22 31 24 114 2 94 2 95 -22
95 -21 0 -24 -4 -24 -40z"/>
<path d="M4350 4875 c0 -15 -6 -25 -37 -59 -7 -8 -9 -16 -6 -20 4 -3 -6 -6
-21 -6 -21 0 -27 -4 -22 -15 3 -8 9 -22 13 -32 4 -11 3 -14 -5 -9 -8 5 -12 0
-12 -12 0 -20 18 -32 49 -32 21 0 61 32 61 49 0 7 5 9 10 6 6 -4 10 5 10 20 0
15 4 24 10 20 6 -3 10 4 10 15 0 13 -8 24 -20 27 -11 3 -20 9 -20 14 0 12 17
11 25 -1 11 -18 35 -11 35 10 0 14 -7 20 -22 20 -19 0 -20 2 -8 10 11 7 7 10
-17 10 -23 0 -33 -5 -33 -15z"/>
<path d="M4890 4840 c0 -5 -7 -10 -16 -10 -8 0 -12 -4 -9 -10 4 -6 -6 -10 -22
-10 -15 0 -35 -5 -43 -10 -12 -8 -11 -10 8 -10 12 0 21 -3 21 -7 -4 -25 2 -35
14 -25 11 10 47 -6 47 -21 0 -3 -20 -18 -45 -34 -35 -22 -43 -32 -39 -48 11
-32 29 -46 44 -32 10 9 11 9 5 -2 -5 -9 -4 -12 3 -7 7 4 12 15 13 24 0 11 3
12 6 5 5 -15 33 -18 33 -4 0 12 39 21 46 10 3 -5 13 -9 22 -8 11 0 12 3 5 6
-13 5 -19 33 -7 33 3 0 14 -5 26 -11 28 -15 36 -2 10 17 -12 8 -22 20 -22 25
0 6 7 3 16 -6 18 -18 36 -16 42 6 3 11 2 11 -7 -1 -9 -12 -11 -9 -12 15 0 26
-2 27 -9 10 -7 -17 -9 -17 -9 -2 -1 9 -4 17 -7 17 -8 0 -30 -24 -37 -40 -4
-11 -6 -10 -6 4 -1 12 -6 16 -16 12 -11 -4 -15 2 -15 20 0 14 4 23 9 19 5 -3
16 2 24 10 19 18 47 20 47 3 0 -9 4 -8 10 2 6 10 10 11 10 3 0 -7 7 -13 16
-13 9 0 12 5 8 12 -5 8 -2 9 9 5 22 -8 21 -5 -2 21 -10 12 -28 22 -40 22 -15
0 -20 4 -15 13 5 7 1 7 -10 -2 -15 -13 -19 -13 -26 -1 -5 8 -12 11 -16 7 -4
-4 3 -16 16 -27 17 -15 19 -20 7 -20 -8 0 -17 -3 -20 -7 -2 -5 -2 -2 -1 5 2 7
-7 12 -21 12 -18 0 -25 5 -25 20 0 11 -4 20 -10 20 -5 0 -10 -4 -10 -10z"/>
<path d="M5944 4022 c3 -5 -4 -15 -15 -22 -10 -8 -19 -20 -19 -26 0 -7 -8 -10
-20 -7 -11 3 -20 1 -20 -5 0 -6 12 -12 28 -14 27 -3 27 -3 -10 -22 -42 -20
-47 -32 -20 -40 14 -4 14 -5 -2 -3 -26 3 -31 21 -11 40 9 10 11 18 5 22 -5 3
-10 1 -10 -4 0 -6 -9 -11 -20 -11 -11 0 -20 -4 -20 -10 0 -5 -7 -10 -16 -10
-8 0 -12 -4 -9 -10 4 -6 -5 -10 -20 -10 -14 0 -24 -4 -21 -9 3 -5 -5 -12 -19
-15 -14 -4 -25 -11 -25 -16 0 -12 37 -13 42 -1 2 5 35 12 74 16 58 5 74 4 87
-9 11 -12 17 -13 20 -3 3 6 6 -1 6 -16 1 -38 21 -59 38 -41 7 7 13 20 13 28 0
9 5 16 10 16 6 0 10 10 11 23 1 21 1 21 9 -3 7 -22 8 -21 9 13 1 20 6 37 11
37 6 0 10 23 10 50 0 29 -5 50 -11 50 -5 0 -7 5 -4 10 4 6 -12 10 -40 10 -25
0 -44 -4 -41 -8z"/>
</g>
</svg>
